<?xml version="1.0" encoding="UTF-8"?>
<svg width="763px" height="606px" viewBox="0 0 763 606" version="1.1" xmlns="http://www.w3.org/2000/svg" xmlns:xlink="http://www.w3.org/1999/xlink">
  <style>
    path.path { stroke: #000; fill: none; fill-rule="nonzero" }
    circle { fill: #ffa000; stroke: #000; }
    g:hover path.path { fill: #ffa000; }
    g:hover circle { fill: #000; stroke: #fff; }
  </style>
  <g id="result" stroke="none" stroke-width="1" fill="none" fill-rule="evenodd">
      <rect x="0" y="0" width="763" height="606" fill="#fff"></rect>
      <path class="path" d="M11.5,5 L14,16.5 L13,19.5 L14,26 L29,30.5 L39,50.5 L31,65 L42.5,72 L44,71.5 C42.2,72.6333333 42.7,73.8 45.5,75 L60,63.5 L31,5.5 L33,5 L33.5,7 C35.1666667,4 39.1666667,3.33333333 45.5,5 L78,15 L75,5 L78,6.5 L82.5,14 L84,13.5 L86.5,15 L90.5,17 L97.5,5 L113.5,10 L140.5,23 L142,22.5 L143.5,25 L171,39 L172.5,41 L183.5,48 L186,46.5 L184,49.5 L193.5,57 L196,55.5 L194,58.5 L200.5,65 L204,62.5 C199.533333,65.0333333 200.033333,67.5333333 205.5,70 L213,65 L181.5,29 L180,29.5 C181.8,28.3666667 181.3,27.2 178.5,26 L168.5,20 L166,21.5 L167.5,19 L148.5,10 L145.5,15 L145,13.5 L147,9 L138,5.5 L140.5,5 L171.5,19 L187,31 L192.5,38 L194,39.5 L195,42 L198,43.5 L202.5,49 L204,48.5 L203,50.5 L213.5,62 L246,45 L242,35.5 C249.533333,29.0333333 258.866667,24.3666667 270,21.5 L262,5.5 L264,5 C262.866667,7.73333333 263.7,8.73333333 266.5,8 L278.5,5 L280.5,6 L289.5,5 L291.5,5 C294.3,4.13333333 295.133333,5.3 294,8.5 L299.5,23 L301.5,22 L301.5,23 C299.7,22.6 299.2,24.4333333 300,28.5 C303.333333,42.5 305,58.1666667 305,75.5 L312,86 L319,87.5 L317,90.5 L339.5,92 L349,90 L350,86.5 C349.333333,74.1666667 345.333333,65.1666667 338,59.5 L339,55.5 L339,53.5 L337,37 L340,38.5 L339,40.5 L340,59.5 L345.5,67 L354.5,62 L387.5,60 L389.5,60 C394.766667,61.9333333 396.933333,61.1 396,57.5 L396,55.5 L395,48 L375,49 L379,29.5 L379,27.5 L377,23.5 L378,11.5 L380,9.5 L377,5.5 L378.5,5 L386.5,15 L391.5,16 L394,15 L395,8.5 L392.5,5 L395,6.5 L396.5,9 L398,7.5 L399,5 L401,5.5 L398,10.5 L402,16 L406,18.5 C409.266667,21.2333333 410.266667,26.2333333 409,33.5 C407.4,39.2333333 404.233333,43.4 399.5,46 L398,47.5 L397,60 L406,60 C404.2,64.7333333 405.7,66.4 410.5,65 L419.5,64 L421,65.5 L421,80.5 L421,82.5 C419.066667,87.7666667 419.9,89.9333333 423.5,89 L438.5,90 L446,94 C445.2,87.7333333 446.2,82.9 449,79.5 L449,71.5 L451,69.5 L452,55.5 L431.5,34 L402,5.5 L403.5,5 L408.5,11 L412,14.5 L437,37 C436.266667,39.2 437.266667,39.8666667 440,39 L441,23.5 L438,11.5 L439,9.5 L436,5.5 L437.5,5 C441.166667,10.1333333 442.666667,17.1333333 442,26 L453.5,27 L456,19.5 L456,17.5 L455,10.5 L457,5 C460.266667,3.8 461.266667,5.3 460,9.5 L458,22 L461,21.5 L460.5,20 L463.5,19 L475,11 L476.5,9 L483,5 L480,36.5 L480.5,38 L463.5,36 L461.5,36 C457.566667,34.6 456.066667,35.4333333 457,38.5 L456,45.5 L457,50.5 L458,53.5 L462,59.5 L458.5,57 C453.433333,55.4666667 451.933333,57.6333333 454,63.5 L452,72.5 L466.5,91 L490.5,83 L505,85.5 L503,86.5 L512,94.5 L515,100 L517,101.5 L529.5,116 L542,107 C539.266667,105.333333 538.266667,102 539,97 L537,96.5 L540,96 L540,101.5 L547.5,109 L562.5,120 L567,118 L556.5,97 L542,96.5 L566.5,95 L570.5,96 L578,92.5 L593.5,66 L594,67.5 L592,70.5 L592.5,72 L591,72.5 L591.5,74 L590,73.5 L581,90.5 L580,93.5 L582,98.5 L582,100.5 L584.5,108 L589,104.5 L588.5,103 L590.5,104 L614.5,87 L625,83.5 L601.5,57 L599.5,56 L595.5,63 L595,61.5 L602,48.5 L595,34.5 L595,21.5 L593.5,20 C586.966667,15.2 577.3,13.5333333 564.5,15 L548.5,18 L535,28 L533.5,30 L520,45.5 L517,67.5 L523,91 L525,91.5 L523,92 L522,97 L519.5,98 L521,95.5 L522,91.5 L515,65.5 L519,44.5 L533.5,28 L548,18 C547.266667,15.5333333 549.766667,14.8666667 555.5,16 L567,14 L567.5,5 L569.5,14 L587,15 L589.5,5 L590,8.5 L588,15.5 L595,19 L595.5,14 L596,34.5 L603,49.5 L601,55.5 L605,61 L613.5,54 L607,61.5 L625,83 L641.5,80 L645.5,77 L647.5,77 L649,76.5 L647,73.5 L649,74.5 L651.5,78 L652,76.5 L646.5,69 L646,70.5 L646.5,72 L642,65.5 L644,66.5 L645.5,69 L646,67.5 L645.5,66 L648.5,67 L653,65.5 L647,41.5 L649.5,40 L649,41.5 L650,50 L672,43.5 L664.5,35 C665.833333,37.6666667 667.166667,37.6666667 668.5,35 L677.5,29 L677.5,30 L675,31.5 L675.5,33 L673.5,32 L667,37.5 L674.5,45 L679,41.5 L675,46.5 L676.5,49 L671.5,45 L666,47 L672,76 L681,74 L682.5,71 L694,68 L691,55 L681,57.5 L684,63.5 L683,63.5 L680,56 L690,52.5 L688.5,51 L689,49.5 L683,29 L679,28.5 L682,28 L678.5,17 L670.5,27 L664,31.5 L662.5,35 L653.5,39 L654.5,37 L663,34 L661,22.5 L662,22.5 L663.5,30 L674,21.5 L682,9.5 L677,5.5 L678.5,5 C680.7,9.86666667 682.866667,10.3666667 685,6.5 L687.5,5 L707.5,20 L720,9.5 L717,5.5 L718.5,5 C720.5,9 722.5,9 724.5,5 L729.5,10 L733,7.5 L731.5,5 L735,6 L737,10.5 L734,14.5 L733,25.5 L728,36.5 L731,43.5 L723,46 L726,59 L761,49 L761.5,47 L762,52 L684,75 L685,81.5 L685,83.5 L685,91.5 C687.6,92.5666667 688.6,95.2333333 688,99.5 L687,99.5 L683,90.5 L682,78.5 L683,76 L671.5,79 L667,78 L659,120.5 L649,130.5 L659.5,133 L692,127 L691,119.5 L692,119.5 L693,129 L704.5,128 L711.5,124 L746.5,120 L752.5,121 L761.5,120 L761.5,121 L712.5,125 L706,129.5 L708,147.5 L704,158 L707,158.5 L702,159 L702,164.5 L723.5,205 L754.5,189 L761.5,189 L761.5,190 L755.5,190 L724,206 L731.5,221 L762,216 C762.733333,218.333333 760.566667,219 755.5,218 L732,222 L755.5,267 L761.5,264 L760.5,266 L756,268.5 L758,271.5 L756,270.5 L755.5,269 L754.5,271 L754,269.5 L754.5,268 L753,266.5 L749,258 L736.5,264 L716.5,226 L707.5,227 L682.5,180 L677,184.5 L692,217.5 C691.733333,225.1 693.066667,231.1 696,235.5 L695,240.5 L696,242.5 L689,262.5 L688,292.5 L691,300 L695.5,299 L697.5,300 L702.5,297 L708.5,297 L737.5,287 L760,277.5 L757,276.5 L759.5,275 L762,279.5 L709,298 L708.5,301 L706.5,300 L698,302 C699.133333,304.733333 698.3,305.733333 695.5,305 L695.5,304 L697,303.5 L694.5,303 L694,307.5 L704,338 L706,338.5 L702,373 L740,384 L748,359.5 L751,336 L762,343.5 L761.5,345 L751,338 L751,351.5 L738,396 L747.5,396 L761.5,391 L761.5,392 L748.5,397 L739.5,398 L736,397 L739,385 L730.5,384 L700,372.5 L702,357.5 L701.5,356 L703,355.5 L702,352.5 L704,339.5 L700,328 L688.5,331 L679.5,309 L653,318.5 L661.5,344 L664,345.5 L654.5,383 L648,381 L649.5,384 L662.5,390 L664,389.5 L665.5,392 L691.5,404 L714.5,410 L716.5,410 L721.5,409 L723.5,409 L751.5,407 L762,410 L760.5,412 L760.5,413 L762,413.5 L760.5,414 L744.5,409 L744,411 L740,412.5 L739,423 L748,425.5 L751,437 L761.5,434 L761.5,437 L758.5,436 L758.5,438 L754.5,437 L754.5,439 L750,438 L745.5,425 L720,419 L721,412 C703.2,411.333333 688.7,407 677.5,399 L670.5,411 L666,413 C670.333333,424.2 676.666667,433.7 685,441.5 L686.5,448 L701.5,441 L700.5,443 L686.5,450 L683,444.5 L684,441.5 L678,433 L674,430.5 L664,413 L671,408.5 L676,398.5 L649,387 L646,394.5 L678,439.5 L679,444.5 L674.5,452 L660,460.5 C679.333333,467.833333 697.166667,476.666667 713.5,487 L715,486.5 L714.5,488 L716,485.5 L717.5,483 L718,484.5 L716,488.5 L725.5,499 L727,500.5 L729.5,502 L761.5,487 L760.5,489 L742,497.5 L749.5,521 L762,524 C763.133333,526.733333 762.3,527.733333 759.5,527 C753.033333,524.133333 745.033333,522.8 735.5,523 C731.833333,525 730.666667,529.5 732,536.5 L734,548 L747,546 L749.5,540 L757.5,545 L759,544.5 L760.5,547 L762,548.5 L759.5,547 L749.5,542 L748,547 L739.5,549 L737.5,549 L734,549.5 L737,570.5 L739.5,574 L744,574.5 L738,576.5 L740,589 L761.5,586 L761.5,587 L742,590 L741,594.5 L743,605 C740.533333,605.933333 739.866667,604.433333 741,600.5 L738,590.5 C735.933333,565.833333 732.6,543 728,522 L720.5,518 L720,519.5 L720,521.5 L719.5,533 L719,519.5 L717,517.5 L717.5,516 L715.5,517 L712,514.5 L712.5,513 L710.5,514 L707,511.5 L704.5,508 L669.5,488 L648.5,470 L643.5,469 L598.5,489 L585,499.5 L588.5,511 L592.5,509 L592.5,510 L589,511 L601,537 L621,537.5 L602,538.5 L603,542 L607,543.5 L605.5,544 L602.5,543 L593.5,554 L595,551.5 L602,540.5 L587.5,513 L562.5,524 L553.5,523 L549,529.5 L549,531.5 L551.5,533 L551.5,534 L549,534.5 L549,547.5 L548,550.5 L548.5,554 L559.5,554 L591.5,556 L593,555.5 L591.5,557 L575.5,557 L549,555 L548.5,562 L547.5,555 L547,563.5 L547,565.5 L546,571.5 L546,573.5 L544,605 L542,604.5 L542,594.5 L545,565.5 L542.5,554 L529,553.5 L543.5,553 L545,553.5 L546,543.5 L545,540.5 L541.5,533 L523.5,552 C527.1,550.733333 528.6,551.233333 528,553.5 L526.5,553 L520.5,554 L518.5,554 L502.5,555 L498.5,554 L499.5,557 L495.5,554 L458.5,548 L455.5,550 L429,543 L426,579.5 L428,604.5 L427,604.5 L425,573.5 L426,564.5 L417.5,562 L413,564.5 L410,578.5 L413,602 L415,602.5 L413,603 L411,605 L408,573.5 L412,556.5 L405,561.5 L412,551.5 L412,549.5 L410.5,542 L403,548.5 L398.5,558 L397.5,556 L394,562 L397,560.5 L397.5,559 L398,560.5 L397,563 L404,563.5 L397.5,564 L395.5,563 L396,564.5 L376,605 L374,604.5 L376,600 L369.5,604 L370.5,602 L380,594.5 L394,564.5 L392.5,562 L389,563.5 C389.6,565.766667 388.1,566.266667 384.5,565 L376.5,566 L319.5,539 L318,542.5 L324.5,554 L326,553.5 L325,555.5 L326,558 L328,558.5 L328,560.5 L339,587.5 L351,604.5 L349,605 L343.5,596 L342,596.5 L343,594.5 L332,576.5 L327,560.5 C321.466667,554.233333 317.466667,546.733333 315,538 L291,560.5 L288,576.5 L291,578.5 L289.5,579 L287,578 L282,605 C279.533333,605.933333 278.866667,604.433333 280,600.5 L287,565.5 L262,589.5 L260.5,591 L254,599.5 L258.5,605 L252.5,599 L249,602.5 L247.5,604 L245.5,605 L286.5,563 L288,561.5 L277.5,552 L276,552.5 L275.5,550 L254,573 L227,598.5 L232.5,605 L226,600 L229,604.5 L226.5,603 L223.5,602 C222.5,605 219.5,606 214.5,605 L221,597.5 L203.5,580 L187,595.5 L185.5,597 L176.5,605 L189.5,591 L193,588.5 L196.5,585 L202,578.5 L192.5,570 L166,603.5 L166.5,605 L161.5,605 L136.5,580 L134,581.5 L136,579.5 L131.5,575 L130,575.5 L128,571.5 L125,570.5 L126,569.5 L110.5,554 L101,562.5 L99,584.5 L78.5,605 L77,604.5 L82,601 L82,598.5 L69.5,586 L68,584.5 L60.5,578 L45,595.5 L53.5,605 L43.5,596 L31.5,605 L33.5,602 L40,596.5 L39,595.5 L52,582.5 L46.5,576 L30,566.5 C29.9333333,561.1 31.7666667,557.6 35.5,556 L38,554.5 L39.5,553 L55,536 L75,517.5 L74,514.5 L75,512.5 L73,512.5 L72,509.5 L73,509.5 L73.5,511 L74,508.5 L73,505 C70.3333333,505.933333 69.6666667,504.1 71,499.5 L58,459.5 L46.5,440 L39.5,441 L27.5,452 L14,458.5 L4.5,486 L4,483.5 L11,462.5 L15.5,455 L24.5,453 L41,438.5 L27,412 L30,412.5 L29,414.5 L43.5,439 L46,437.5 L36,421.5 L38,421.5 L36.5,419 L35,419.5 L36,417.5 L34,417.5 L35,415.5 L33,415.5 L34,413.5 L31,412.5 L33,412.5 L30.5,408 L19,412.5 L21.5,414 L21.5,415 L15.5,416 L15.5,415 C18.0333333,415.666667 18.8666667,415 18,413 L4.5,417 L4,414 C6.86666667,414.666667 8.03333333,414 7.5,412 L13.5,412 L20.5,408 L22.5,408 L30,405.5 L26,402.5 L27,400.5 L17.5,382 L4.5,385 L5.5,383 L15,379.5 L15,375.5 L7.5,362 L4.5,363 L4.5,362 L6,361.5 L4,353.5 L5,353.5 L13.5,370 L52.5,351 L54,354 L57,352.5 L44,327 L31,332 L30.5,334 L28.5,334 L18.5,339 L19.5,337 L42,325.5 L35,311.5 L35,307.5 C39,305.433333 40.6666667,301.6 40,296 L64.5,296 L65,294.5 L75,280.5 L62,272 L61,267.5 L66,248 L58.5,247 L22.5,247 L4.5,248 L4.5,247 L12.5,246 L17.5,247 L47,245.5 L39.5,242 L4.5,243 L4.5,242 L43.5,241 L49.5,246 L67,247 L68,249.5 L63,264.5 L63,270.5 L99.5,295 L105.5,292 L107.5,293 L114,290 C112.6,279.933333 109.266667,271.433333 104,264.5 L119,253.5 L94,233.5 L96,230.5 L87.5,217 L76.5,216 L71,211.5 C72.7333333,206.633333 71.5666667,204.8 67.5,206 L61.5,204 L48.5,221 C39.7,214.8 28.3666667,211.133333 14.5,210 L10.5,211 L8.5,211 L4,210.5 L10.5,208 C25.9666667,208.866667 38.6333333,212.533333 48.5,219 L58,204.5 L51.5,200 L23,193 L21.5,198 L21,196.5 L22,192 L4,186.5 L4.5,184 L22.5,190 C25.0333333,188.533333 25.5333333,185.033333 24,179.5 L22.5,180 L4,181 L4.5,179 L13.5,179 L15.5,179 L24,178 L23,174.5 L23,172.5 L22,149.5 L19.5,147 L4,143 C4.13333333,131.333333 6.8,121.833333 12,114.5 L4,111.5 L7.5,111 L13.5,113 L30,95.5 L29.5,94 L33.5,92 L38,85.5 L33.5,81 L25.5,89 L11.5,89 L11,93.5 L11.5,95 L10,96.5 L4,101.5 L9,95.5 L10,85.5 L10,83.5 L9,79.5 L10,76.5 L10,74.5 L9,72.5 L10,67.5 L9,58.5 L4,53.5 L9,49.5 L19.5,38 L29,33.5 L28,31 L12,26.5 L12,24.5 L11,12.5 L11,10.5 C12.2,6.43333333 10.3666667,5.26666667 5.5,7 L5.5,6 L11.5,5 Z M37,6 L35,8 L46,32 L68,22 L69,15 L37,6 Z M101,6 L93,20 L129,37 L135,23 L101,6 Z M284,6 L278,9 L283,18 L291,15 C295,22.3333333 297,32.3333333 297,45 L300,46 L298,25 L292,9 C291.333333,6.33333333 288.666667,5.33333333 284,6 Z M482,6 L462,23 C458,24.3333333 456.333333,28 457,34 L462,35 L463,32 L463,35 L479,37 L480,34 L479,31 L482,11 L482,6 Z M273,7 L273,8 L275,8 L273,7 Z M685,7 L680,15 L683,27 L702,21 L704,22 L696,24 L693,25 L684,29 L692,53 L720,44 L718,35 L717,32 L714,20 L706,22 L705,19 L685,7 Z M724,7 L714,19 L723,45 L729,43 L727,39 L729,30 L729,28 L731,27 L734,12 L734,9 L730,14 L729,12 L724,7 Z M270,8 L270,9 L271,9 L270,8 Z M267,9 L267,10 L268,10 L267,9 Z M274,9 L267,11 L280,49 L282,78 L285,93 L294,92 C299.333333,94 301,92.3333333 299,87 L297,87 L298,77 L295,77 L297,76 C299,52 296.666667,32.3333333 290,17 L281,19 L277,11 C277.666667,9 276.666667,8.33333333 274,9 Z M379,11 L380,31 L380,33 L376,46 C375.333333,48 376.333333,48.6666667 379,48 L386,28 L387,18 L386,16 L379,11 Z M397,11 L397,12 L397,11 Z M396,12 L396,13 L396,12 Z M398,13 L397,15 L398,15 L398,13 Z M80,14 L78,16 L80,16 L80,14 Z M400,14 L398,16 L401,16 L400,14 Z M72,16 L69,20 L69,23 L78,35 L80,40 L88,24 L72,16 Z M88,17 L88,18 L88,17 Z M388,17 L387,29 L381,47 C387.666667,48.3333333 392.333333,47.6666667 395,45 L394,43 L395,38 L394,19 C394,16.3333333 392,15.6666667 388,17 Z M399,17 L396,18 L397,34 L396,36 L398,39 L397,45 L401,44 L408,34 C409.333333,28 408.666667,23.6666667 406,21 C405.333333,17.6666667 403,16.3333333 399,17 Z M89,18 L89,19 L90,19 L89,18 Z M68,23 L48,33 L48,37 L60,58 L64,58 L70,54 L78,44 L76,34 L68,23 Z M270,23 C258.666667,25.6666667 249.666667,30.3333333 243,37 L259,65 C259,76.3333333 260,86.3333333 262,95 L283,94 L279,61 L279,59 L278,47 L270,23 Z M91,24 L82,43 L82,44 L99,42 L105,36 L107,31 L91,24 Z M136,24 L136,25 L136,24 Z M137,24 L136,28 L136,30 L133,30 L130,38 L152,47 C155.333333,48.3333333 156,50 154,52 L156,52 L158,52 L161,54 L164,59 L166,58 L174,65 L176,67 L180,69 L183,70 L182,72 L197,82 L205,72 L193,59 L191,61 L192,59 C177.333333,43 159,31.3333333 137,24 Z M442,27 L441,32 C439,38.6666667 440,43 444,45 L445,47 L450,50 L452,47 L454,28 L442,27 Z M108,33 L108,35 L100,43 L77,47 L66,62 L75,84 L81,79 L82,77 L92,70 L95,71 L99,62 L99,60 L101,59 L103,60 L99,68 L112,73 L115,47 L115,45 L117,36 L113,35 L104,58 L101,58 L103,56 L112,35 L108,33 Z M29,35 C20.3333333,38.3333333 14,43.3333333 10,50 C14.6666667,56 21.3333333,60.3333333 30,63 L37,51 L30,37 L29,35 Z M118,37 L114,68 L116,69 L113,69 L112,76 C110.666667,79.3333333 111.333333,80.6666667 114,80 L113,85 L121,85 L133,92 L164,98 L177,108 L178,110 L189,117 L205,97 L205,94 L203,95 L203,94 L184,78 L182,76 L170,67 L168,66 L159,60 L158,57 L155,56 L150,51 L118,37 Z M246,46 L216,64 L229,71 L231,76 L256,62 L248,48 L246,46 Z M718,46 L692,54 L697,68 L725,60 L721,48 C721.666667,45.3333333 720.666667,44.6666667 718,46 Z M298,47 L298,59 L298,61 L299,81 L300,84 C298,90 299.333333,92.3333333 304,91 L301,55 C303,48.3333333 302,45.6666667 298,47 Z M663,48 L651,51 L654,67 L648,70 L657,76 L671,76 L670,71 L670,69 L665,51 C665.666667,48.3333333 665,47.3333333 663,48 Z M153,49 L153,50 L153,49 Z M453,49 L451,52 L453,53 L453,49 Z M154,50 L154,51 L154,50 Z M10,51 L6,55 L15,61 L16,57 L10,51 Z M158,53 L158,54 L158,53 Z M456,53 L455,56 L457,56 L456,53 Z M159,54 L159,55 L159,54 Z M68,55 L68,56 L68,55 Z M162,56 L162,57 L162,56 Z M66,57 L66,58 L66,57 Z M69,57 L69,58 L69,57 Z M163,57 L163,58 L163,57 Z M65,58 L65,59 L65,58 Z M68,58 L68,59 L68,58 Z M18,59 L15,63 L25,70 L28,65 L18,59 Z M166,59 L166,60 L166,59 Z M61,60 L61,61 L61,60 Z M63,60 L63,61 L63,60 Z M167,60 L167,61 L167,60 Z M11,61 L11,64 L13,63 L11,61 Z M62,61 L62,62 L62,61 Z M101,61 L100,63 L101,63 L101,61 Z M393,61 L392,62 L388,62 L388,71 L396,71 L396,62 L393,61 Z M397,61 L397,65 L405,65 L405,61 L397,61 Z M374,62 L361,63 L359,63 L346,67 L348,72 L349,73 L359,73 L360,69 L360,73 L387,71 L386,67 L386,62 L376,62 L374,62 Z M65,63 L61,65 L59,70 L48,79 L41,87 L48,92 L58,103 L58,110 L54,111 L56,122 L59,123 L60,125 C60,139 61.6666667,151.333333 65,162 L64,164 L70,174 L89,167 L92,166 L98,167 L93,150 L93,148 L74,86 L65,63 Z M100,63 L99,65 L100,65 L100,63 Z M257,63 L237,75 L244,85 L261,95 L259,78 L259,76 L257,63 Z M14,64 L13,65 L11,66 L11,77 L13,76 L15,77 L23,72 L14,64 Z M99,65 L98,67 L99,67 L99,65 Z M416,65 L415,66 L406,66 L406,70 L415,71 L406,71 L407,76 L406,80 L409,81 L411,81 L414,80 L416,80 C420,81.3333333 421.333333,80.3333333 420,77 L420,75 L419,72 C421,66 420,63.6666667 416,65 Z M30,66 L27,69 L25,72 L34,79 L28,72 L35,77 L40,72 L30,66 Z M213,66 L207,72 L212,78 L214,79 L214,67 L213,66 Z M216,66 L215,76 L219,85 L218,84 C215.333333,83.3333333 214.666667,85 216,89 L209,93 L219,100 L221,102 L225,104 C229,106 230.333333,108 229,110 L231,109 L234,114 L236,113 L251,123 L255,116 L259,115 L266,106 L261,100 C251.666667,98 244,94.3333333 238,89 L233,91 L230,88 L231,86 L229,83 L230,75 L216,66 Z M401,66 L397,68 L398,72 L398,74 C396,81.3333333 398.333333,83.6666667 405,81 L405,67 L401,66 Z M58,68 L58,69 L58,68 Z M98,68 L98,69 L98,68 Z M57,69 L57,70 L57,69 Z M97,69 L96,71 L97,71 L97,69 Z M98,69 L97,73 L110,79 L111,75 L98,69 Z M694,69 L694,70 L694,69 Z M687,71 L687,72 L687,71 Z M25,72 L17,77 L17,79 L11,78 L11,88 L16,88 L18,88 L19,86 L20,86 C19.3333333,88.6666667 21,89.3333333 25,88 C29,86 29,84 25,82 C27.6666667,85.3333333 30,85 32,81 L25,72 Z M92,72 L89,74 L88,77 L84,79 L86,84 L89,85 L95,74 L92,72 Z M390,72 L388,74 L389,87 L397,86 L396,84 L396,72 L390,72 Z M651,72 L651,73 L651,72 Z M683,72 L683,73 L683,72 Z M41,73 L34,80 L36,82 L39,84 L40,85 L47,78 L41,73 Z M206,73 L198,84 L205,88 L209,81 C212.333333,82.3333333 213.666667,82 213,80 L206,73 Z M368,73 L349,74 L351,90 L373,88 L375,88 L382,87 L387,87 L387,73 L371,74 L368,73 Z M652,73 L651,75 L654,77 L652,73 Z M95,74 L90,85 L92,91 L111,86 L113,82 L95,74 Z M236,75 L234,76 C231.333333,76.6666667 230.333333,79 231,83 C238.333333,89.6666667 247.666667,94.6666667 259,98 L260,96 L248,89 L236,75 Z M453,75 L452,77 L453,77 L453,75 Z M453,78 L452,93 L465,91 L458,82 L453,78 Z M658,78 L656,82 L658,83 L659,88 L659,91 L654,80 L653,80 L654,83 L652,81 L640,82 L620,87 L605,97 L618,113 L624,105 L627,103 L613,121 L610,136 L627,140 L637,140 L638,133 L638,141 L640,141 L639,132 L640,132 C638,137.333333 639,139.333333 643,138 L643,136 L658,120 L666,80 L664,79 L660,78 L658,78 Z M83,79 L75,84 L77,88 L85,86 L83,79 Z M656,79 L655,81 L656,81 L656,79 Z M214,81 L216,83 L214,81 Z M414,81 L413,82 C407,80 405,82 407,88 L416,89 L420,89 L419,87 L419,85 C420.333333,81 419.333333,79.6666667 416,81 L414,81 Z M210,82 L205,90 L208,91 L215,88 L215,84 L213,82 L210,82 Z M306,82 L305,89 L309,88 L306,82 Z M398,82 C396,87.3333333 398.666667,89 406,87 L405,86 L405,82 L398,82 Z M87,86 L77,89 L85,119 L95,116 L96,120 L96,122 L94,118 L86,121 L99,167 L109,169 L110,167 L110,170 L126,165 L145,171 L147,171 L169,181 L174,177 L177,175 L185,163 C185,157 183.333333,153 180,151 L175,147 L167,148 C161.666667,148.666667 158.666667,147.333333 158,144 L153,146 L152,149 L131,140 L118,131 L116,129 L116,127 L110,108 L113,99 L125,94 L126,92 L120,87 L113,87 L89,94 L89,98 L87,93 L89,93 L91,92 L90,89 C90.6666667,85.6666667 89.6666667,84.6666667 87,86 Z M231,86 L233,89 L235,88 L231,86 Z M486,86 L468,92 L469,98 L452,97 C450.666667,101 451.333333,103 454,103 L454,104 C451.333333,104 450.666667,106.333333 452,111 L458,112 L452,113 L453,123 L466,126 L470,125 L476,154 L481,157 L502,183 L503,182 L505,182 L506,180 L513,178 L515,177 L517,177 L541,159 L529,136 C527.666667,133.333333 526.666667,133.333333 526,136 L527,134 L521,124 L527,119 L512,107 L513,105 L506,92 L497,86 L486,86 Z M313,87 L313,89 C314.333333,91 315.333333,91 316,89 L313,87 Z M449,87 L448,94 L450,93 L449,87 Z M40,88 L36,91 L37,93 L36,92 L17,114 L26,116 L48,112 L49,109 L49,111 L57,109 L56,103 L40,88 Z M311,88 L309,90 L311,90 L311,88 Z M381,90 C378.333333,91.3333333 377.666667,94.3333333 379,99 L379,101 L380,112 L383,113 L385,113 L389,112 L388,104 L388,90 L381,90 Z M389,90 L389,98 L390,101 L390,112 L398,112 L399,104 L399,111 L414,111 L415,110 L414,97 L415,95 L414,91 L406,90 L398,90 L398,102 L397,102 L397,90 L389,90 Z M364,91 L351,92 L349,94 L355,128 L358,128 C363.333333,126.666667 365.666667,127.333333 365,130 L368,131 L378,114 L377,93 L377,91 L364,91 Z M437,91 L437,92 L438,92 L437,91 Z M580,91 L580,92 L580,91 Z M129,92 L125,96 L124,95 L118,97 L112,104 L112,111 L118,130 L124,134 L126,133 L128,137 L135,140 L137,139 L137,141 L146,143 L147,141 L147,144 L156,143 L163,135 L165,135 L179,129 L187,117 L162,99 L129,92 Z M416,92 L416,110 L425,109 L428,110 L430,110 L433,109 L434,109 L434,93 L416,92 Z M440,92 L440,93 L440,92 Z M298,93 L298,94 L301,94 L298,93 Z M343,93 L322,97 L342,134 L354,130 L349,102 L348,99 C350,93 348.333333,91 343,93 Z M466,93 L463,94 C461,95.3333333 461,96.3333333 463,97 C467,98.3333333 468.666667,97.6666667 468,95 L466,93 Z M290,94 L290,95 L291,95 L290,94 Z M577,94 L581,108 L583,109 L579,97 C579.666667,94.3333333 579,93.3333333 577,94 Z M274,95 L274,96 L274,95 Z M298,95 L286,97 L283,100 L283,99 L283,97 L276,98 C268.666667,104 263,111.666667 259,121 L259,123 L258,122 L254,128 L275,145 L277,144 L276,146 L297,162 L298,166 C299.333333,168.666667 300.666667,169 302,167 L305,168 L307,164 L315,106 L315,104 L316,97 L315,97 L306,96 L306,99 L305,97 L298,95 Z M322,95 L322,96 L325,96 L322,95 Z M456,95 L456,96 L458,96 L456,95 Z M510,95 L510,96 L510,95 Z M575,95 C571,97.6666667 565.666667,98.3333333 559,97 L573,124 L582,112 L578,101 L577,101 L575,101 L577,100 L576,97 L575,95 Z M265,96 L265,97 L273,97 L265,96 Z M435,96 L435,101 L435,103 L436,108 L447,103 L446,97 L435,96 Z M208,97 L183,128 L178,132 L164,137 L159,144 L164,147 L167,146 L178,147 L186,156 L203,142 L212,138 L228,155 L235,145 L235,143 L237,143 L246,131 L246,128 L241,123 L238,124 L239,122 L208,97 Z M448,97 L448,99 C446.666667,102.333333 447.333333,103.666667 450,103 L450,97 L448,97 Z M511,97 L511,98 L511,97 Z M604,97 L589,107 L574,126 L607,138 C609.666667,135.333333 611,131.333333 611,126 L610,124 L616,116 L605,99 L604,97 Z M269,98 L262,100 L268,104 L272,99 L269,98 Z M512,98 L512,99 L512,98 Z M217,99 L217,100 L217,99 Z M513,99 L513,100 L513,99 Z M318,100 L319,105 L318,104 L314,125 L314,131 L329,149 L339,137 L320,102 L318,100 Z M515,102 L515,103 L515,102 Z M448,104 L446,123 L449,125 L447,125 L446,133 C444.666667,136.333333 446,137.333333 450,136 L451,133 L450,113 C451.333333,106.333333 450.666667,103.333333 448,104 Z M514,104 L514,107 L520,111 L521,112 L518,107 L514,104 Z M224,105 L224,106 L224,105 Z M446,105 L436,111 L437,124 L436,134 L443,135 L445,135 L445,114 L445,112 L447,106 L446,105 Z M226,106 L226,107 L226,106 Z M227,107 L227,108 L227,107 Z M522,107 L522,108 L522,107 Z M544,107 L529,117 L531,119 L545,139 L546,141 L555,147 L572,126 L569,119 L563,121 L544,107 Z M228,108 L228,109 L228,108 Z M231,110 L231,111 L231,110 Z M524,110 L524,111 L524,110 Z M232,111 L232,112 L232,111 Z M421,111 L419,113 L416,112 L417,132 L418,133 L435,133 L436,126 L434,120 L434,111 L421,111 Z M525,111 L525,112 L525,111 Z M50,112 L33,117 L16,115 C10,121.666667 6.33333333,130.666667 5,142 L22,146 L24,155 L25,178 L58,176 L60,176 L68,175 L62,161 L59,130 L58,127 L57,124 L53,116 C54.3333333,112 53.3333333,110.666667 50,112 Z M233,112 L233,113 L233,112 Z M403,112 L402,113 C398.666667,112.333333 397.666667,115 399,121 L398,121 L398,113 L390,113 L391,133 L394,136 L398,124 L399,124 L395,136 C394.333333,143.333333 396,148.333333 400,151 L415,159 L419,144 L418,142 C418.666667,138.666667 418,137.333333 416,138 L417,136 L414,129 L415,123 L415,121 L414,118 L415,115 L415,112 L405,112 L403,112 Z M522,112 L522,113 L522,112 Z M526,112 L526,113 L526,112 Z M523,113 L523,114 L523,113 Z M236,114 L236,115 L236,114 Z M379,114 L369,133 L385,141 L387,141 C386.333333,137.666667 388,136.666667 392,138 C390,135.333333 389.333333,131 390,125 L389,125 L388,123 L389,114 L384,114 L384,123 L383,123 L383,114 L379,114 Z M237,115 L237,116 L237,115 Z M528,115 L528,116 L528,115 Z M238,116 L238,117 L238,116 Z M258,116 L258,117 L258,116 Z M240,117 L240,118 L240,117 Z M241,118 L241,119 L241,118 Z M256,118 L256,119 L256,118 Z M242,119 L242,120 L242,119 Z M255,119 L254,121 L255,121 L255,119 Z M254,121 L254,122 L254,121 Z M526,121 L523,124 L543,157 L551,151 L547,146 L543,143 L540,137 L533,131 L530,125 L526,121 Z M253,122 L253,123 L253,122 Z M453,124 L452,135 L456,136 L459,137 L472,137 L470,129 L453,124 Z M254,125 L254,126 L254,125 Z M574,127 L569,135 L567,136 L556,150 L562,153 L564,157 L590,174 L603,164 L605,160 C607,159.333333 607.666667,160.333333 607,163 L612,166 L615,162 L629,150 L631,143 L613,137 L607,139 L574,127 Z M692,128 L683,131 L685,131 L685,132 C682.333333,132.666667 681.333333,132 682,130 L668,132 L661,135 L655,133 L651,136 L647,134 L644,140 L658,144 L664,143 L675,147 L676,144 L676,146 C680,143.333333 686.333333,142.666667 695,144 L693,136 L694,131 L696,141 L696,144 L706,144 L705,129 L692,130 L692,128 Z M255,129 L255,130 L255,129 Z M363,129 L354,132 L357,157 L377,150 L380,152 L365,156 L371,172 L371,174 L366,162 L361,163 L359,160 L354,162 L365,192 L375,190 L372,182 L373,178 L375,188 L379,189 L381,188 L386,181 L395,175 L397,172 L401,167 L400,165 L402,161 L403,164 C405.666667,162.666667 406.666667,160 406,156 L403,153 L399,154 L401,157 L401,160 C400.333333,154.666667 398,151 394,149 L386,151 L381,151 L392,148 L394,145 L393,141 C393.666667,138.333333 392,137.666667 388,139 L387,144 L363,129 Z M256,130 L256,131 L256,130 Z M253,131 L253,132 L253,131 Z M257,131 L257,132 L257,131 Z M250,132 C234.666667,144.666667 224,161.333333 218,182 L222,184 L221,187 L218,188 L223,205 C233,204.333333 241.333333,205.666667 248,209 L275,192 L281,193 L300,181 L297,174 L299,170 L292,166 L290,169 L289,169 L291,165 L257,136 L255,135 L253,133 C244.333333,139 238,147.333333 234,158 C232.666667,160.666667 231.333333,161 230,159 L232,159 L251,133 L250,132 Z M258,132 L258,133 L258,132 Z M314,132 L309,159 C311.666667,163.666667 314.333333,163.333333 317,158 L313,163 L315,164 L320,160 L319,157 L315,154 L321,158 L325,154 L324,152 L327,151 L314,132 Z M352,132 L342,135 L353,160 L356,159 L355,152 L355,150 L353,138 C353.666667,133.333333 353.333333,131.333333 352,132 Z M650,132 L650,133 L650,132 Z M651,133 L651,134 L651,133 Z M126,134 L126,135 L126,134 Z M257,134 L257,135 L257,134 Z M420,134 L418,136 C420.666667,138 421.333333,142 420,148 L420,150 L420,154 L419,152 L416,160 L434,164 L435,135 L420,134 Z M568,134 L568,135 L568,134 Z M127,135 L127,136 L127,135 Z M258,135 L258,136 L258,135 Z M262,135 L262,136 L262,135 Z M436,135 L435,188 L434,190 L437,191 L438,189 L438,187 L437,172 L440,170 L439,191 L443,192 L444,172 C446,166 444.666667,163.666667 440,165 L440,168 L439,165 L437,165 L439,164 L444,136 L436,135 Z M567,135 L567,136 L567,135 Z M263,136 L263,137 L263,136 Z M264,137 L264,138 L264,137 Z M341,137 L330,151 L346,164 L352,162 L341,137 Z M447,137 L443,152 L446,153 L450,138 L447,137 Z M452,137 L448,153 L470,157 L472,151 C471.333333,148.333333 472,147.333333 474,148 L472,138 L452,137 Z M210,139 L193,153 L194,155 L193,154 L190,155 L186,159 L184,169 L179,175 L171,182 L187,188 L190,187 L190,189 C195.333333,186.333333 202.333333,185 211,185 C213.666667,183.666667 214,182.666667 212,182 L217,178 L215,175 L218,176 L226,158 L215,144 L210,139 Z M263,139 L263,140 L263,139 Z M267,139 L267,140 L267,139 Z M641,139 L641,140 L642,140 L641,139 Z M264,140 L264,141 L264,140 Z M268,140 L268,141 L268,140 Z M269,141 L269,142 L269,141 Z M635,141 L635,142 L636,142 L635,141 Z M272,143 L272,144 L272,143 Z M640,143 L640,150 L648,159 L648,161 L637,144 L632,145 L633,157 L633,165 L624,174 L636,184 L648,170 L647,172 L648,173 C650.666667,170.333333 652,166 652,160 L653,160 L650,171 L677,184 L684,175 L690,153 L687,152 L687,151 L694,154 L695,145 C687,143.666667 681,144.666667 677,148 L685,150 L685,151 L671,146 L652,143 L641,144 L643,150 L648,155 C642.666667,153 640,149 640,143 Z M269,144 L269,145 L269,144 Z M273,144 L273,145 L273,144 Z M274,145 L274,146 L274,145 Z M698,145 L695,155 L703,157 L706,149 L706,145 L698,145 Z M394,147 L398,152 L399,150 L394,147 Z M278,148 L278,149 L278,148 Z M279,149 L279,150 L279,149 Z M474,149 L471,156 C471,158 473,158.333333 477,157 L474,149 Z M280,150 L280,151 L280,150 Z M329,151 L322,159 L320,162 C313.333333,165.333333 313.333333,168.666667 320,172 L320,173 L319,172 L315,168 C310.333333,170.666667 308.333333,173.333333 309,176 L312,180 L316,178 L318,183 L317,185 L324,190 L320,186 L325,189 L327,187 L320,180 L328,186 L331,183 L333,181 L345,166 L329,151 Z M630,151 L622,157 L612,168 L615,171 L626,164 L630,165 L632,164 L631,157 C631.666667,152.333333 631.333333,150.333333 630,151 Z M283,152 L283,153 L283,152 Z M553,152 L551,155 L544,160 L557,176 L563,172 L570,163 L560,159 L556,155 L553,152 Z M284,153 L284,154 L284,153 Z M442,153 L440,160 C438.666667,164 440,165.333333 444,164 L445,155 L442,153 Z M285,154 L285,155 L285,154 Z M449,154 L447,156 L446,170 L460,171 L462,171 L466,170 L469,158 L449,154 Z M692,154 L685,175 L699,165 L701,160 L692,154 Z M286,155 L286,156 L286,155 Z M288,156 L288,157 L288,156 Z M364,156 L359,158 L362,162 L365,161 C366.333333,157 366,155.333333 364,156 Z M408,156 L408,157 L408,156 Z M289,157 L289,158 L289,157 Z M409,157 L403,166 L403,170 L402,168 L395,177 L384,186 L382,189 L405,188 L403,177 L404,171 L405,187 L407,188 L408,187 L408,174 L414,159 L409,157 Z M290,158 L290,159 L290,158 Z M473,158 L470,159 L468,170 L472,169 L484,170 L490,170 L484,162 C482.666667,158 479,156.666667 473,158 Z M291,159 L291,160 L291,159 Z M415,161 L409,176 C408.333333,181.333333 409.333333,185 412,187 L428,189 L431,165 L415,161 Z M542,161 L508,187 L510,197 L523,195 L525,195 L529,194 L561,201 L564,196 L563,199 L570,195 L548,166 L542,161 Z M309,162 L305,171 L306,173 L314,167 L313,164 L309,162 Z M296,163 L296,164 L296,163 Z M351,163 L346,165 L339,176 L340,178 L355,191 L361,193 L356,170 L355,170 L355,169 L354,165 L351,163 Z M605,163 L591,176 L595,181 L599,178 L600,177 L603,175 L610,168 L607,165 L605,163 Z M626,165 L616,173 L620,176 L629,167 L626,165 Z M700,165 L684,179 L709,226 L718,224 L730,250 L732,249 L731,251 L736,262 L747,257 L701,167 L700,165 Z M432,166 L430,182 L430,189 L433,189 L434,186 L433,184 L434,180 L433,175 L434,173 C435.333333,167.666667 434.666667,165.333333 432,166 Z M571,166 L558,176 C560.666667,183.333333 565.333333,189 572,193 C580,191.666667 586.666667,188.666667 592,184 L585,174 L574,166 L571,166 Z M124,167 L110,172 L97,168 C81,169.333333 69,174.333333 61,183 L58,187 L53,191 L55,195 L60,199 L58,200 L62,201 L62,199 C69.3333333,204.333333 78.6666667,207.666667 90,209 C93.3333333,209.666667 94,207.666667 92,203 L101,197 L109,201 L124,170 L124,167 Z M127,167 L117,187 L134,194 L138,186 L141,185 C151,185.666667 159.333333,184.666667 166,182 L147,174 L145,174 C140.333333,170 134.333333,167.666667 127,167 Z M303,169 L303,170 L303,169 Z M611,169 L601,179 L599,181 L596,183 L599,186 L614,173 L612,172 L612,171 L611,169 Z M476,170 L469,171 L473,178 L476,176 L492,174 L491,171 L488,172 L476,170 Z M447,171 L445,173 L445,192 L454,195 L459,195 L460,184 L464,173 L447,171 Z M300,172 L299,174 L300,174 L300,172 Z M465,172 L460,194 L462,197 C463.333333,189.666667 466.333333,184 471,180 L468,174 L465,172 Z M650,172 L647,176 L640,183 L639,182 L632,190 L639,184 L637,187 L650,207 L655,203 L656,202 L666,193 L667,191 L674,186 L671,182 L650,172 Z M647,173 L647,174 L647,173 Z M303,174 L301,177 L304,178 L305,176 L303,174 Z M309,174 L309,175 L309,174 Z M614,174 L605,182 L611,185 L618,177 L614,174 Z M624,174 L612,187 L626,195 L631,189 L634,186 L627,179 L625,177 L624,174 Z M646,174 L640,181 L646,176 L646,174 Z M489,175 L477,177 L471,181 L474,185 C476,184.333333 476.666667,185 476,187 L479,189 L481,192 L486,194 L487,192 L500,183 L496,178 C495.333333,175.333333 493,174.333333 489,175 Z M55,177 L25,179 L26,185 L25,191 L41,195 C51,191 59.3333333,185.333333 66,178 L55,177 Z M307,177 L305,179 L310,184 L313,186 L314,184 L307,177 Z M338,177 L335,180 L333,181 L331,185 L333,185 L334,187 L332,186 L329,187 L330,189 L329,188 L326,190 L335,200 L334,202 L337,206 L341,204 C343,202.666667 342.333333,201.333333 339,200 L343,202 L346,201 L342,197 L347,200 L347,199 L349,199 L356,195 L355,193 L349,187 L348,188 L348,187 L338,177 Z M517,178 L517,179 L517,178 Z M515,179 L515,180 L516,180 L515,179 Z M215,180 L213,182 L215,182 L215,180 Z M303,180 L307,187 L310,186 L303,180 Z M315,180 L314,182 L317,183 L315,180 Z M512,180 L509,182 L507,184 L514,181 L512,180 Z M640,181 L640,182 L640,181 Z M169,182 L157,185 L155,185 L141,186 L128,210 L162,225 L167,224 L173,214 L181,207 L190,193 L189,190 L171,183 L169,186 L168,186 L169,184 L169,182 Z M301,182 L295,186 L293,188 L281,194 L278,193 L274,194 L271,203 L272,205 L271,212 L293,214 L298,206 C301.333333,204 301,202.333333 297,201 L300,200 L301,203 L309,192 L307,189 L305,186 L301,182 Z M217,183 L215,185 L218,186 L219,184 L217,183 Z M470,183 L463,198 L477,205 L484,196 L470,183 Z M506,183 L504,186 L507,186 L506,183 Z M604,183 L599,189 L603,191 L609,187 L604,183 Z M410,184 L409,186 L411,187 L410,184 Z M214,185 L215,187 L216,187 L214,185 Z M501,185 L492,190 L487,196 L485,197 L479,206 L485,209 L489,203 L493,200 L486,210 L495,214 L501,200 L494,199 L501,198 L500,195 L502,195 L502,192 L502,188 L501,185 Z M593,185 L581,192 L579,194 L578,193 L566,198 L561,204 L548,216 L552,220 L557,236 L566,240 L583,243 L582,225 L582,223 L581,215 L581,213 L579,205 L580,197 L580,201 L586,200 L596,188 L593,185 Z M311,186 C309,187.333333 309,188.333333 311,189 C313,188.333333 313,187.333333 311,186 Z M316,186 L314,188 L323,198 L325,197 L322,192 L316,186 Z M212,187 L212,188 L214,188 L212,187 Z M611,187 L610,188 L604,192 L604,195 L618,207 L624,195 L611,187 Z M675,187 L666,194 C662.666667,195.333333 662,196.666667 664,198 L663,197 L648,209 L648,208 L636,188 L627,199 L626,197 L619,210 L620,211 C623.333333,209 625.333333,205.333333 626,200 L627,203 L620,212 L634,224 L639,220 L636,224 L645,231 L648,229 L646,232 C650.666667,237.333333 657,241.333333 665,244 L666,242 L667,242 L665,245 L688,260 L690,256 L689,253 L691,254 L694,244 L691,220 L676,189 L675,187 Z M117,188 L110,202 L127,209 L131,202 L130,200 L132,199 L133,194 L117,188 Z M714,188 L714,189 L714,188 Z M201,189 L201,190 L202,190 L201,189 Z M212,189 C207.333333,191 201.666667,191.666667 195,191 L173,218 L170,225 C176,225 180.666667,226.666667 184,230 L210,236 L221,212 L217,206 L219,204 L218,201 L218,200 L217,191 L212,189 Z M311,189 L311,191 L318,196 L321,200 L323,199 L314,189 L311,189 Z M506,189 L503,195 C502.333333,197 503.666667,197.333333 507,196 L506,189 Z M407,190 L397,191 L397,193 L396,191 L380,192 L377,194 L390,218 L393,217 L397,218 L396,218 L396,219 L399,218 L410,221 L411,221 L411,192 L409,190 L407,190 Z M414,190 L415,206 L417,207 L414,207 L413,193 L412,193 L412,221 L414,222 L417,217 L418,223 L423,207 L423,205 L421,193 C421.666667,189.666667 419.333333,188.666667 414,190 Z M598,190 L597,199 L601,199 L598,190 Z M632,190 L632,191 L632,190 Z M715,190 L715,191 L715,190 Z M191,191 L191,192 L191,191 Z M325,191 L327,194 L328,194 L325,191 Z M423,191 L424,205 L426,206 L424,206 L423,214 L423,216 L421,216 L420,220 L421,224 L420,224 L420,226 L420,227 L413,225 L409,234 C407.666667,246.666667 409,256.333333 413,263 L426,260 L425,262 L428,265 L430,261 L426,259 L433,245 L431,244 L434,243 L432,249 C432.666667,251.666667 432,252.666667 430,252 L428,257 L431,260 L434,259 L436,261 L432,263 L437,270 L440,271 L442,274 L444,273 L446,274 L443,274 L446,279 L448,278 L449,279 L446,281 L452,291 L457,290 L457,288 L459,292 C460.333333,294.666667 463.666667,295.666667 469,295 L473,297 L486,296 L491,282 L489,281 L487,276 L490,276 L489,279 L492,280 L492,287 L491,285 L490,285 L491,289 L490,294 L489,292 L488,294 L488,295 L498,295 L515,286 L517,265 L517,263 L516,249 L513,240 L510,242 L499,254 C496.333333,258.666667 491.666667,262 485,264 L488,271 L488,272 L485,267 C485.666667,264.333333 485,263.333333 483,264 L487,274 C485,271.333333 483.333333,271.666667 482,275 L484,272 L482,264 C472.666667,265.333333 464.666667,268 458,272 L454,272 L461,270 L461,268 L463,268 L465,267 L467,267 L471,266 L472,263 L472,265 L481,263 L474,249 L469,245 L468,242 L467,244 L463,247 L467,242 L459,234 L452,247 L442,259 L440,260 L437,260 L441,258 L443,251 L443,254 L446,252 L448,250 L458,234 C455.333333,230 451,228 445,228 C443.666667,231.333333 445.333333,232.333333 450,231 L450,232 C444.666667,234 442.666667,233 444,229 L444,227 C448.666667,226.333333 452,227 454,229 L455,229 L449,226 L451,225 L454,214 L452,214 L454,213 L455,209 L455,207 L457,198 L447,196 L445,198 C445.666667,207.333333 444.666667,215.666667 442,223 L447,225 L442,225 L441,230 L440,227 L421,227 L441,224 L442,216 L440,216 L442,215 L441,214 L441,213 C443.666667,213.666667 444.333333,212.333333 443,209 L439,209 L444,208 L443,198 L444,195 L438,193 L435,194 L434,192 L423,191 Z M631,191 L626,197 L631,193 L631,191 Z M52,192 L50,193 L47,197 L55,199 L58,199 L54,194 L52,192 Z M310,192 L301,204 L299,205 L292,218 L292,220 L291,219 C287.666667,222.333333 286.333333,228 287,236 L290,235 L287,241 L285,231 L275,235 L276,253 L286,255 L289,254 L288,244 L288,242 L290,247 L289,255 L299,262 L305,263 C308.333333,250.333333 313.666667,239 321,229 L321,227 L323,228 L333,215 L310,192 Z M371,192 L371,193 L373,193 L371,192 Z M716,192 L716,193 L716,192 Z M367,193 L367,194 L369,194 L367,193 Z M375,193 L364,196 L367,212 L371,213 L368,213 L371,225 L376,222 L379,226 L388,219 L389,217 L379,221 L377,222 L387,216 L378,196 L375,193 Z M595,193 L594,196 L595,196 L595,193 Z M329,194 L328,196 L334,201 L329,194 Z M360,194 L354,197 L353,199 L361,195 L360,194 Z M365,194 L365,195 L365,194 Z M593,195 L586,201 L584,201 L580,203 L581,208 L581,210 L582,214 L582,216 L584,231 L584,244 L588,244 L588,238 L597,213 L596,209 C597.333333,203 596.666667,200.333333 594,201 L593,195 Z M271,196 L271,197 L271,196 Z M524,196 L511,198 L508,197 L502,198 L498,211 L499,213 L504,211 L502,209 L502,208 L512,211 L497,214 L497,217 L505,226 L507,227 L515,237 C523.666667,233.666667 531,229 537,223 L536,210 L515,210 L533,209 L535,197 L524,196 Z M718,196 L718,197 L718,196 Z M269,197 L251,209 L253,210 L255,208 L254,210 L269,211 L271,199 L269,197 Z M325,197 L330,204 L332,203 L325,197 Z M362,197 L355,201 L353,203 L348,205 C344.666667,206.333333 344,207.666667 346,209 L345,208 L342,209 L363,231 L368,227 L365,211 C365.666667,207.666667 365.333333,206.333333 364,207 L364,206 C364.666667,202.666667 364.333333,201.333333 363,202 L363,201 L362,197 Z M602,197 L602,199 L605,199 L602,197 Z M538,198 L535,208 L535,209 L554,209 L556,207 L559,203 L538,198 Z M719,198 L719,199 L719,198 Z M99,199 L94,201 L93,204 L94,210 L101,211 L102,212 L104,210 L108,203 C106.666667,199.666667 103.666667,198.333333 99,199 Z M324,199 L322,202 L335,213 L324,199 Z M351,199 L351,200 L352,200 L351,199 Z M460,199 L452,226 L457,227 L458,224 L469,215 L467,214 L467,213 L466,212 C464,211.333333 464,210.333333 466,209 L466,211 L472,206 L460,199 Z M221,200 L221,201 L221,200 Z M349,200 L348,202 L350,201 L349,200 Z M603,200 L600,211 C600.666667,213 600,213.666667 598,213 L590,235 L589,244 L596,245 L607,218 L608,206 L608,204 L607,201 L603,200 Z M598,201 L599,211 L600,208 C602,202.666667 601.333333,200.333333 598,201 Z M609,201 L609,204 L608,218 L617,210 L611,205 L609,201 Z M58,202 L58,203 L59,203 L58,202 Z M346,202 L345,204 L347,203 L346,202 Z M110,203 L104,212 L125,217 L126,210 L110,203 Z M333,203 L331,206 L338,211 L333,203 Z M343,204 L343,205 L344,205 L343,204 Z M622,204 L622,205 L622,204 Z M225,206 L223,208 L228,218 L231,219 L233,207 L225,206 Z M339,206 L339,208 L342,207 L339,206 Z M473,206 L467,212 L470,214 L475,209 C475.666667,206.333333 475,205.333333 473,206 Z M73,207 L72,210 L73,213 L89,216 L91,213 L73,207 Z M236,207 L230,221 L237,233 L237,242 L243,243 L244,242 L248,210 L236,207 Z M620,207 L620,208 L620,207 Z M478,208 L471,216 L465,221 L464,222 L460,227 C457.333333,228.333333 457.666667,229.666667 461,231 L483,212 L478,208 Z M619,208 L619,209 L619,208 Z M537,210 L539,222 L551,211 L537,210 Z M250,211 L246,233 L247,239 L245,239 L244,244 L265,250 L266,244 L266,242 L268,238 L267,234 L268,226 L268,224 L269,222 C269,219.333333 266.666667,218.666667 262,220 L262,219 C268.666667,221 271,219 269,213 L250,211 Z M340,211 L335,217 L334,218 L324,231 L327,232 L325,234 L324,231 L316,242 L318,245 L318,246 L316,243 L308,261 L310,262 L312,262 C318.666667,266 327,268.333333 337,269 L338,266 L338,270 L344,271 L345,269 L343,265 L346,266 L359,242 L358,240 L353,245 L357,240 L356,239 L360,241 L364,236 L358,231 L353,224 L351,223 L347,219 L344,223 L343,223 L346,219 L340,211 Z M617,211 L607,221 L602,233 L603,235 C605.666667,225 610.666667,217.333333 618,212 L617,211 Z M92,212 L90,217 L97,231 L96,235 L119,251 L125,261 L127,260 C121.666667,242.666667 114,228.333333 104,217 C101.333333,213 97.3333333,211.333333 92,212 Z M127,212 L126,217 L137,220 C139.666667,221.333333 140.666667,220.666667 140,218 L127,212 Z M485,212 L464,231 L465,233 L464,232 L462,233 L471,239 L480,249 L466,236 L463,237 C471.666667,242.333333 477.666667,250.666667 481,262 L484,263 L485,260 L484,260 L481,252 L481,250 L487,261 C491,261 494,259.333333 496,256 L498,253 L505,245 L512,240 L498,222 L496,219 L485,212 Z M221,213 L219,218 L224,224 L227,220 L224,215 L221,213 Z M270,213 L269,232 L282,231 L283,228 L284,228 C283.333333,230 284,230.666667 286,230 L287,227 C287.666667,223.666667 287,222.333333 285,223 L285,226 L284,223 L281,223 L288,222 L292,216 L270,213 Z M619,213 L616,215 L610,221 L601,241 L603,244 L602,250 L619,260 L620,230 L620,262 L624,263 L644,233 C642,229 638.666667,226.666667 634,226 L621,215 L622,222 L621,229 L620,215 L619,213 Z M108,215 L108,216 L108,215 Z M109,216 L112,222 L110,220 L109,222 L113,224 L112,226 L120,227 L114,228 L131,256 L149,245 C154.333333,241 157.666667,235.333333 159,228 L151,226 L123,227 L124,225 L123,221 L125,220 L109,216 Z M107,217 L107,218 L107,217 Z M547,217 L527,231 L528,234 L526,232 L515,239 L518,244 L522,243 C527.333333,242.333333 531.333333,243.666667 534,247 C537.333333,241.666667 544.333333,239.666667 555,241 L557,238 L555,233 L554,230 L551,223 L549,219 L547,217 Z M141,218 L141,221 L146,222 L149,222 L141,218 Z M109,219 L109,220 L109,219 Z M127,219 L125,225 L139,225 L139,222 L127,219 Z M391,219 L391,221 L394,222 L393,224 L394,226 L397,227 L398,224 L402,222 L396,229 L398,232 C397.333333,234.666667 400,235.333333 406,234 L411,225 L391,219 Z M400,219 L400,220 L402,220 L400,219 Z M228,220 L225,226 L236,236 L228,220 Z M388,220 L370,234 L368,237 C369.333333,239.666667 370.666667,240 372,238 L371,240 L372,243 L376,245 L375,247 L388,269 L395,274 L401,268 L400,267 L402,267 L407,265 L399,238 L391,222 L388,220 Z M404,220 L404,221 L405,221 L404,220 Z M219,221 L211,236 L215,237 L220,236 L220,238 L231,240 L234,241 C235.333333,241.666667 235.666667,240.666667 235,238 L223,227 L219,221 Z M408,221 L408,222 L409,222 L408,221 Z M416,221 L416,222 L416,221 Z M151,222 L151,223 L151,222 Z M411,222 L411,223 L411,222 Z M140,223 L140,225 L145,224 L140,223 Z M168,224 L166,226 L168,226 L168,224 Z M374,224 C370,226 369.333333,227.666667 372,229 L377,226 L374,224 Z M635,224 L635,225 L636,225 L635,224 Z M439,225 L439,226 L441,226 L439,225 Z M162,227 L153,243 L134,258 L135,260 L132,261 L141,278 L144,276 L145,279 L152,280 L155,276 L166,230 L162,227 Z M369,228 L366,230 L364,233 L367,234 L371,231 L370,230 L369,228 Z M457,229 L458,231 L457,229 Z M170,231 L166,248 L174,250 L177,234 L170,231 Z M181,231 L175,250 L187,253 L191,233 L181,231 Z M270,233 L266,251 L275,252 L274,237 L274,235 L270,233 Z M461,233 L463,236 L463,235 L461,233 Z M646,233 L625,265 L638,272 C640,271.333333 640.666667,272 640,274 L658,284 L661,283 L660,285 L668,290 L670,289 L669,291 L675,294 L687,291 L688,262 L682,258 L680,256 L646,233 Z M168,234 L168,235 L168,234 Z M192,234 L186,261 L190,274 L198,271 L200,272 L196,273 L203,281 C205,279.666667 205.333333,276.333333 204,271 L201,271 L203,270 L205,265 L209,237 L192,234 Z M402,235 L400,237 L410,264 L412,264 L408,253 L408,246 L407,243 L408,241 L404,239 L407,238 C408.333333,234.666667 406.666667,233.666667 402,235 Z M602,235 L601,237 L602,237 L602,235 Z M365,236 L345,271 L347,270 L349,269 L347,272 L349,272 L351,272 L369,278 L373,276 L371,279 L385,287 L392,276 L386,269 L383,272 L385,269 L381,259 L378,259 L380,258 L378,254 L376,251 L371,256 L375,251 L374,248 L372,249 C374,247.666667 374,246.333333 372,245 L369,247 L371,244 L369,242 L365,238 L357,255 L355,256 L365,238 L365,236 Z M167,237 L166,240 L167,240 L167,237 Z M601,237 L598,243 C597.333333,247 598,248.666667 600,248 L601,249 L600,244 L601,240 L601,237 Z M212,238 L208,253 L211,254 L218,254 L218,241 L212,238 Z M559,238 L557,241 C555.666667,243 553,243.333333 549,242 L547,242 C541.666667,242.666667 538,244.666667 536,248 L526,244 L517,247 C519.666667,252.333333 520.333333,259.333333 519,268 L522,269 L519,269 L519,280 L521,280 L521,281 C517,280.333333 516,282 518,286 L533,289 L536,293 L545,313 L548,314 L553,308 L555,306 L556,306 L547,318 L549,318 L548,321 L550,320 L551,320 L550,322 L553,327 L555,326 L558,319 L564,320 L560,320 L555,328 L560,327 L580,328 L586,326 L586,328 L630,322 L634,315 L621,290 L616,286 L591,319 C583.666667,319 578,317 574,313 L573,315 L571,316 C570.333333,312.666667 571,311.333333 573,312 L576,304 L577,304 L574,312 L590,318 L616,284 L602,272 L599,271 L599,270 L598,267 L596,265 L591,264 L591,262 L589,263 L587,263 L591,261 C594.333333,259.666667 595.666667,256.666667 595,252 L584,250 L580,263 L586,264 L574,264 L574,265 L588,264 L589,265 L587,266 L567,265 L573,264 L561,263 L564,240 L559,238 Z M166,240 L157,276 C155.666667,279.333333 157.333333,280.333333 162,279 L166,283 L161,271 L166,244 L166,240 Z M220,240 L219,254 L225,255 L228,254 L230,255 L234,243 L220,240 Z M565,241 L563,262 L578,263 C580.666667,258.333333 582,252 582,244 L565,241 Z M235,244 L229,259 L230,272 C228.666667,276 230,277.333333 234,276 L233,265 L231,265 L233,264 L237,256 L238,256 L234,264 L236,274 C236,275.333333 238,275.666667 242,275 L243,270 L242,267 L248,253 L241,249 L239,254 L238,254 L242,247 L247,250 L250,249 L235,244 Z M585,245 L583,249 L596,251 L596,248 L595,250 L594,250 C595.333333,246 594.333333,244.666667 591,246 L589,246 L585,245 Z M597,245 L597,246 L597,245 Z M252,249 L250,251 L265,257 L266,252 L252,249 Z M599,249 L597,251 L598,256 L599,253 L601,253 L599,249 Z M167,250 L162,266 L167,282 L177,279 L170,267 L174,252 L167,250 Z M176,251 L172,264 C172,270.666667 174.333333,275.333333 179,278 L185,275 L186,276 L160,288 L155,288 L154,294 L162,299 L164,298 L163,300 L169,304 L194,292 L200,282 L194,274 L188,275 L188,274 L187,269 L186,266 L185,263 L186,254 L176,251 Z M250,252 L244,265 L244,275 L247,274 C255.666667,273.333333 262.333333,274.333333 267,277 L263,289 L275,295 L280,287 L282,285 L284,282 L283,284 L301,284 L303,278 L302,274 L303,271 L303,269 L304,267 L294,261 L294,259 L292,262 L290,263 L291,259 L293,259 L288,257 C289.333333,265.666667 288.666667,273 286,279 L285,279 L287,267 L281,267 L271,262 L269,262 L263,258 L260,259 L260,258 L250,252 Z M267,253 L266,259 L278,264 L279,264 L279,255 L267,253 Z M602,253 L600,258 L602,262 L601,269 L614,278 C618.666667,276 620.333333,271 619,263 L602,253 Z M209,254 L205,269 L214,266 L218,266 L218,255 L213,256 L209,254 Z M600,254 L600,255 L600,254 Z M120,255 L105,265 C110.333333,270.333333 113.333333,277.666667 114,287 C116,284.333333 120.333333,283.333333 127,284 L129,277 L129,282 L137,280 L130,261 L126,262 L127,265 L126,267 L120,255 Z M219,256 L220,266 L219,268 L220,278 L229,276 L228,266 L221,266 L227,265 L229,258 L229,256 L219,256 Z M281,256 L280,260 L281,265 L287,265 L287,257 L281,256 Z M600,256 L600,257 L600,256 Z M596,257 L596,258 L596,257 Z M133,258 L132,260 L133,260 L133,258 Z M595,258 L592,262 L595,260 L595,258 Z M597,258 L598,263 L599,260 L597,258 Z M600,260 L600,267 L601,265 L600,260 Z M432,261 L432,262 L432,261 Z M486,261 L486,262 L486,261 Z M595,261 L593,263 L596,264 L595,261 Z M307,263 L307,265 L319,270 L320,268 L320,270 L336,273 L342,273 L307,263 Z M420,263 L403,268 L398,273 L396,277 L397,278 L394,277 C385.333333,286.333333 380,299 378,315 L382,316 L387,322 L419,312 L418,308 L419,304 L419,299 L415,293 L436,278 L433,273 L427,267 L425,270 L423,268 L425,268 L426,266 C425.333333,263.333333 423.333333,262.333333 420,263 Z M431,263 L429,267 L437,274 L438,274 L437,276 L440,275 L432,265 L431,263 Z M621,263 L620,268 L622,267 L621,263 Z M597,264 L597,265 L597,264 Z M623,266 L620,272 L621,278 L627,268 L623,266 Z M214,267 L216,279 L219,278 L218,273 C219.333333,267.666667 218,265.666667 214,267 Z M307,267 L307,268 L307,267 Z M309,267 L308,269 L309,272 L306,271 L305,282 L305,284 L303,297 L345,296 L347,296 L351,295 C351,289 349.666667,284.666667 347,282 L348,280 L349,284 L352,284 L354,295 L382,298 L384,287 L372,281 L370,284 L368,283 L371,281 L351,274 L347,274 L351,282 L351,283 L348,277 L347,279 L345,276 L342,274 C339.333333,275.333333 339.333333,276.666667 342,278 L338,274 C325.333333,274 315.666667,271.666667 309,267 Z M211,268 L205,270 C203.666667,275.333333 204.333333,278.666667 207,280 L214,279 L213,276 C214.333333,270 213.666667,267.333333 211,268 Z M629,269 L622,279 L659,302 L666,310 L678,306 L676,298 L663,288 C660.333333,288.666667 659.333333,288 660,286 L639,275 L637,276 L638,273 L629,269 Z M346,273 L345,275 L346,275 L346,273 Z M619,274 L615,279 C614.333333,281 615.666667,281.333333 619,280 L619,274 Z M249,275 L231,277 L235,289 L248,287 L255,288 L259,276 L249,275 Z M347,275 L346,277 L347,277 L347,275 Z M261,276 L257,288 L262,289 L266,278 L261,276 Z M441,276 L439,278 L444,285 L450,289 L443,278 L441,276 Z M143,278 L143,279 L143,278 Z M225,278 L202,282 L198,290 C190,296 180.666667,300.666667 170,304 L171,308 L168,305 L160,309 L156,313 L155,323 L156,325 L156,324 L157,324 L156,334 L163,333 L160,331 L159,329 L164,332 C172,332 178.666667,329.666667 184,325 L186,324 C178.666667,330 169,334 157,336 L160,347 L160,349 L162,353 L161,355 L163,359 L170,356 C172.666667,354.666667 173,353.666667 171,353 L173,353 L212,328 L254,307 L253,305 L255,305 L262,301 L264,302 L270,299 L271,298 C267.666667,293.333333 262.666667,290.333333 256,289 C244.666667,288.333333 236,289.666667 230,293 L228,293 L234,290 L230,281 C230.666667,277.666667 229,276.666667 225,278 Z M437,279 L426,286 L426,288 L425,287 L417,293 L420,299 L431,296 L444,296 L447,293 L441,282 L437,279 Z M140,280 L140,282 L143,283 L143,281 L146,281 L140,280 Z M153,280 L153,281 L153,280 Z M161,280 L157,282 L161,283 L163,282 L161,280 Z M138,281 L128,285 L126,287 L117,292 L115,291 L109,294 L107,296 L86,306 L97,322 L99,321 L98,323 L100,326 L103,328 L60,353 L63,358 L20,379 L20,384 L29,402 L31,401 L32,406 L36,404 C38.6666667,404.666667 39.3333333,403.333333 38,400 L35,401 L32,401 L38,399 L41,403 L88,388 C90,386.666667 89.6666667,385.666667 87,385 L88,383 L91,387 L106,381 L105,376 L103,374 L101,374 L98,374 L101,372 C103,372.666667 103.666667,372 103,370 L116,366 C118,366.666667 118.666667,366 118,364 L127,360 L132,371 L149,364 L151,365 L154,364 L157,359 L155,337 L149,311 L150,309 L150,306 L149,308 L148,308 L149,295 L142,290 L139,283 L138,281 Z M621,281 L621,285 L622,285 L621,281 Z M624,281 C626,293 630,303.666667 636,313 L640,315 L641,319 L651,317 L652,314 L652,316 L664,312 L662,308 L657,302 L624,281 Z M76,282 L69,292 L69,296 L82,303 L97,296 L76,282 Z M150,282 L142,285 L143,288 L150,292 L151,289 L150,285 L152,285 L153,283 L150,282 Z M142,283 L142,284 L142,283 Z M156,284 L156,287 L160,286 L156,284 Z M161,284 L161,285 L162,285 L161,284 Z M620,284 L620,285 L620,284 Z M282,285 L278,294 L279,297 L300,297 L301,291 L301,285 L282,285 Z M623,285 L622,287 L623,287 L623,285 Z M119,286 L119,287 L120,287 L119,286 Z M117,287 L117,288 L118,288 L117,287 Z M122,287 L122,288 L122,287 Z M116,288 L116,289 L116,288 Z M120,288 L120,289 L120,288 Z M512,288 C506.666667,294 498.666667,297 488,297 L485,305 L482,308 L475,310 L477,310 L482,316 L490,314 L492,308 L492,313 C495.333333,314.333333 496.666667,314 496,312 L498,312 L510,309 L512,307 C511.333333,300.333333 512,295.333333 514,292 C515.333333,288.666667 514.666667,287.333333 512,288 Z M517,288 C514.333333,292.666667 513.333333,298.666667 514,306 C519.333333,304.666667 523.333333,305.333333 526,308 L526,309 L520,308 L518,309 L515,308 L514,311 L517,310 L526,311 L516,314 L514,317 L516,319 L513,318 L513,326 L517,326 L518,323 L518,325 L544,329 L551,329 L549,326 C549,323.333333 546.333333,322.666667 541,324 L535,317 L527,312 L530,311 L527,310 L531,309 L533,309 L533,312 C531,312.666667 531.666667,313.666667 535,315 L535,314 L535,312 L541,320 L544,319 L537,301 L536,299 L536,298 L534,293 L531,290 L529,291 L527,289 L517,288 Z M624,288 L624,289 L624,288 Z M118,289 L118,290 L118,289 Z M263,289 L263,290 L263,289 Z M490,289 L489,291 L490,291 L490,289 Z M449,290 L449,292 L451,291 L449,290 Z M266,291 L266,292 L266,291 Z M456,291 L450,293 L445,313 L465,322 L473,309 L466,300 L464,297 L456,291 Z M625,291 L625,292 L625,291 Z M268,292 L268,293 L268,292 Z M685,293 L677,296 L681,306 L690,303 L688,295 L685,293 Z M68,294 L68,295 L68,294 Z M103,294 L103,295 L104,295 L103,294 Z M271,294 L271,295 L271,294 Z M101,295 L101,296 L102,296 L101,295 Z M272,295 L273,297 L274,297 L272,295 Z M100,296 L100,297 L100,296 Z M277,296 L277,297 L277,296 Z M445,296 L442,297 L440,297 L433,297 L421,300 L423,302 C425,303.333333 425.333333,306.333333 424,311 L444,312 L447,297 L445,296 Z M466,296 L473,308 L481,306 L483,303 L485,303 L484,301 L485,297 L476,298 L476,300 L466,296 Z M41,297 L42,303 L41,302 L36,310 L44,325 L76,309 L75,308 L77,308 L81,306 L79,302 L70,297 L41,297 Z M97,297 L97,298 L98,298 L97,297 Z M154,297 L152,301 L155,310 L167,305 L154,297 Z M345,297 C333,299.666667 319,300.333333 303,299 L301,312 L302,314 L300,327 L300,329 L303,342 L304,345 L311,369 L316,366 L318,362 L323,361 C325.666667,359.666667 326,358.666667 324,358 L326,358 L337,351 L338,349 L335,346 L335,345 L339,348 L342,347 L341,345 L343,345 L354,340 L350,337 L349,335 L350,333 L355,339 L356,338 L354,336 L353,334 L355,335 L357,335 L358,338 L360,337 L357,334 L361,336 L363,334 L359,339 L360,342 L370,349 L378,331 L374,327 L373,326 L364,334 L366,330 L366,328 L368,329 C370.666667,327.666667 371,326.666667 369,326 L371,326 L376,319 L375,316 L373,317 L373,316 L353,307 L353,311 L352,307 L351,309 L350,309 L351,298 L345,297 Z M354,297 L355,305 L375,315 L380,301 L372,298 L354,297 Z M487,297 L486,299 L487,299 L487,297 Z M95,298 L95,299 L96,299 L95,298 Z M94,299 L94,300 L94,299 Z M98,299 L98,300 L98,299 Z M276,299 L275,301 L277,302 L276,299 Z M278,299 L279,305 L279,307 L282,333 L294,332 L298,328 L300,301 L299,299 L278,299 Z M486,299 L485,301 L486,301 L486,299 Z M92,300 L92,301 L92,300 Z M96,300 L96,301 L96,300 Z M273,300 L266,305 C269.333333,307.666667 271.333333,312.333333 272,319 L271,328 L271,334 L279,334 L280,324 L279,311 L275,302 L273,300 Z M694,300 L693,302 L696,301 L694,300 Z M94,301 L94,302 L94,301 Z M92,302 L92,303 L92,302 Z M152,303 L151,305 L152,305 L152,303 Z M354,304 L354,305 L354,304 Z M484,304 L484,305 L484,304 Z M85,305 L85,306 L85,305 Z M355,305 L355,306 L355,305 Z M420,305 L419,308 L420,308 L420,305 Z M422,305 L422,306 L422,305 Z M483,305 L483,306 L483,305 Z M690,305 L681,308 L690,330 L699,326 L692,307 L690,305 Z M482,306 L482,307 L482,306 Z M81,307 L64,316 L62,318 L61,317 L44,327 L58,352 L60,351 L61,350 L63,350 L100,329 L91,315 L84,307 L81,307 Z M263,307 L248,314 L250,318 L252,317 C256,319.666667 261.666667,320.666667 269,320 L266,309 L263,307 Z M267,307 L267,308 L267,307 Z M518,307 L518,308 L518,307 Z M523,307 L523,308 L523,307 Z M155,311 L154,313 L155,313 L155,311 Z M474,311 L472,314 L474,318 L477,317 C479,317.666667 479.666667,317 479,315 L474,311 Z M509,311 L486,316 C483.333333,315.333333 482.333333,316 483,318 L511,312 L509,311 Z M517,311 L517,312 L519,312 L517,311 Z M531,311 L531,312 L532,312 L531,311 Z M515,312 L515,313 L515,312 Z M422,313 L422,318 C438.666667,316.666667 451.666667,320 461,328 L463,323 L444,314 L422,313 Z M155,314 L154,318 L155,318 L155,314 Z M246,314 L225,325 L223,328 L258,335 L262,321 L249,319 L248,316 L246,314 Z M417,314 C405,316 394.666667,319.333333 386,324 L387,329 L405,321 L421,319 L420,316 C420.666667,313.333333 419.666667,312.666667 417,314 Z M511,314 L506,316 L503,315 L492,317 C488.666667,315.666667 487.333333,316.666667 488,320 C494,323.333333 501.333333,325.333333 510,326 L511,324 L511,314 Z M377,315 L377,316 L377,315 Z M536,315 L536,316 L536,315 Z M636,315 L636,316 L636,315 Z M537,316 L536,318 L538,319 L537,316 Z M377,317 L377,318 L377,317 Z M480,317 L472,320 L468,325 L474,321 L475,322 L474,322 L470,327 L484,354 L489,371 L491,372 L498,363 L502,360 L504,357 L500,345 L495,342 C491.666667,340.666667 490.333333,337.666667 491,333 L488,333 L490,332 L483,320 L479,320 L481,319 L480,317 Z M636,317 L634,319 L637,320 L636,317 Z M472,318 L472,319 L472,318 Z M485,318 L487,320 L485,318 Z M376,319 L373,325 L377,327 L379,329 L383,325 L381,321 L376,319 Z M424,319 L424,321 L454,333 L455,334 L459,330 C451.666667,321.333333 440,317.666667 424,319 Z M471,319 L471,320 L471,319 Z M539,319 L539,320 L539,319 Z M546,319 L546,320 L546,319 Z M650,319 L647,320 L646,322 L645,321 L642,322 L644,342 L659,343 L653,321 L650,319 Z M416,320 L407,322 L410,332 L421,330 L421,320 L416,320 Z M540,320 L540,321 L540,320 Z M544,320 L540,322 L544,323 C546.666667,323.666667 547.666667,323 547,321 L545,322 L545,321 L544,320 Z M266,321 L263,322 L260,335 L269,333 L269,322 L266,321 Z M486,321 L486,322 L486,321 Z M488,321 L486,323 L492,334 L493,340 L508,349 L510,327 L488,321 Z M385,322 L385,323 L385,322 Z M406,322 L390,330 L392,338 L400,333 L401,331 L407,328 L406,322 Z M424,322 C422,327.333333 422.333333,329.666667 425,329 L424,322 Z M426,323 L426,329 L450,334 C451.333333,337.333333 452.666667,338 454,336 L447,330 L426,323 Z M628,324 L601,328 L599,328 L589,330 L587,332 L589,333 L587,334 L589,337 L591,338 L593,343 C594.333333,345.666667 595.666667,346 597,344 L596,346 L605,359 L620,369 L622,368 L622,370 L631,376 L634,376 L632,361 C632.666667,351.666667 634.666667,344 638,338 L636,324 L632,325 L628,324 Z M466,325 L462,329 L477,356 L485,382 L489,377 C484.333333,356.333333 476.666667,339 466,325 Z M521,326 L513,327 L512,332 L513,336 L511,352 L521,349 L524,344 L524,346 L537,340 L539,337 L539,339 C531.666667,345.666667 522.333333,350.666667 511,354 L516,356 L542,344 L548,337 L548,332 L543,336 L540,338 L544,335 L547,330 L525,326 L523,327 L521,326 Z M220,327 L216,329 L216,330 L222,329 L220,327 Z M383,327 L372,345 C371.333333,355 369.333333,364 366,372 L349,386 L344,392 L384,413 L385,400 L383,400 L385,399 L394,372 C394,365.333333 392.333333,360.666667 389,358 L394,350 L393,348 L388,353 L392,348 L384,335 L386,332 L385,329 L383,327 Z M552,327 L552,328 L552,327 Z M408,328 L408,329 L408,328 Z M553,328 L553,329 L553,328 Z M565,328 L555,331 L556,340 L556,342 L560,364 C559.333333,367.333333 560.333333,368.333333 563,367 L582,331 C578,328.333333 572.333333,327.333333 565,328 Z M298,330 L294,334 L298,334 L299,335 L298,330 Z M406,330 L393,341 L397,349 L414,336 L420,334 L421,332 L409,334 L408,332 L406,330 Z M428,330 L427,332 L434,332 L428,330 Z M225,331 L212,332 L205,336 L203,338 L190,344 L196,353 L215,340 L225,339 L228,333 C228.666667,331 227.666667,330.333333 225,331 Z M424,331 L424,332 L426,332 L424,331 Z M551,331 L549,333 L550,336 L545,343 L534,351 C528,351 524,352.666667 522,356 L520,358 L541,365 L559,367 L554,336 C555.333333,331.333333 554.333333,329.666667 551,331 Z M229,332 L227,339 L245,341 L247,334 L229,332 Z M435,332 L439,334 L443,334 L435,332 Z M461,332 L457,337 L454,338 L462,353 L465,362 L466,377 L474,394 L475,392 L477,390 L483,382 L475,354 L464,335 L461,332 Z M584,332 L565,367 L586,371 L587,369 L587,372 L626,379 C629.333333,380.333333 630.666667,380 630,378 L605,362 L605,361 L596,348 L595,350 L594,350 L595,348 L586,333 L584,332 Z M387,333 L386,335 L387,335 L387,333 Z M426,333 L422,334 L422,339 L421,335 L413,339 L411,341 L409,341 L399,350 L401,353 L399,352 L397,350 L406,380 L405,380 L404,377 L404,376 L400,366 L398,364 L397,368 L398,370 L396,370 L397,374 L397,375 L396,373 L392,383 L390,387 L391,389 C387.666667,393 386.333333,399.333333 387,408 L386,411 L388,413 L397,412 L397,414 L415,415 L418,415 L407,402 L408,399 L414,409 L415,411 L419,413 L420,413 C419.333333,415.666667 420.666667,416.333333 424,415 C424,409 425.666667,404.666667 429,402 L430,391 L428,391 L430,390 L431,373 L431,371 L432,358 L433,355 L427,335 L426,333 Z M429,333 L431,341 L433,340 L432,342 L434,361 L434,363 L433,368 L437,368 L439,366 L438,368 C440,376.666667 443.333333,384 448,390 L454,409 L462,406 L464,402 L470,398 L463,379 L462,370 L462,368 C460,357.333333 456.666667,348.333333 452,341 L449,343 L450,341 L449,338 L429,333 Z M290,334 L285,335 L282,336 L281,338 L279,338 L280,340 L267,363 L269,366 L275,364 L281,365 C281.666667,361.666667 281,359.666667 279,359 L282,360 C283.333333,350 286.333333,341.666667 291,335 L290,334 Z M293,334 L287,346 L280,375 L290,376 L293,377 L296,376 L300,378 L300,376 L308,372 L300,338 L293,334 Z M444,334 L452,339 L452,337 L444,334 Z M248,335 L247,339 C248.333333,343 246.666667,344 242,342 L240,342 L227,340 L218,358 C208.666667,366 197.666667,372.333333 185,377 L172,378 L174,381 L182,387 L181,389 L185,395 L187,397 L187,402 L192,405 L199,418 L210,410 L209,409 L211,409 L235,390 C245.666667,380.666667 254,368.666667 260,354 L258,354 L261,353 L267,342 C268.333333,337.333333 266.666667,336 262,338 L259,344 L258,343 L257,346 L254,343 L256,341 L257,337 L248,335 Z M388,335 L388,336 L388,335 Z M270,336 C264,352.666667 256,367.666667 246,381 L196,423 L198,428 C206,426.666667 213,423.333333 219,418 L227,409 L241,397 L258,379 L278,338 L278,336 L270,336 Z M642,336 C637.333333,342 634.666667,350 634,360 L637,377 L644,381 L646,381 L643,379 L640,376 L643,351 C644.333333,344.333333 644,339.333333 642,336 Z M389,337 L389,338 L389,337 Z M357,339 L357,340 L357,339 Z M453,339 L453,340 L453,339 Z M221,340 L214,342 L171,372 L174,376 L186,375 L216,359 L224,342 C224.666667,340 223.666667,339.333333 221,340 Z M359,340 L358,342 L359,342 L359,340 Z M454,340 L453,342 L454,342 L454,340 Z M354,341 L338,351 C334,352.333333 333,354 335,356 L334,355 L323,363 L321,365 L331,373 L331,374 L320,364 L314,369 L312,371 L333,385 L334,379 L334,377 L336,376 L335,373 L337,372 L336,369 L338,369 L341,360 L344,359 L346,357 L349,353 L348,351 L350,351 L355,343 L354,341 Z M357,342 L340,365 L341,367 L340,366 L337,373 L338,379 L337,381 L336,382 L343,388 L346,388 L353,382 L355,378 L359,377 L366,370 L370,351 L363,346 L360,343 L359,343 L357,342 Z M455,342 L455,346 L457,347 L455,342 Z M644,343 L641,375 L642,377 L654,381 L663,346 L644,343 Z M188,346 L165,363 L167,367 L169,366 L168,368 L169,371 L194,355 L190,348 L188,346 Z M458,347 L463,365 L463,373 L464,373 L464,363 L458,347 Z M503,348 L504,351 C503.333333,353 504,353.666667 506,353 L507,351 L503,348 Z M49,353 L15,370 L14,373 L19,378 L31,373 L32,371 L34,371 L61,357 L58,354 L55,356 L54,355 L49,353 Z M395,353 L391,355 L394,364 C393.333333,366 394,366.666667 396,366 L395,363 L397,363 L398,360 L396,356 L395,353 Z M174,354 L174,355 L174,354 Z M508,355 L507,357 L508,357 L508,355 Z M171,356 L171,357 L171,356 Z M170,357 L170,358 L170,357 Z M507,357 L505,361 L507,360 L507,357 Z M515,357 L532,375 L533,374 L532,376 L550,394 C556,388 560,380 562,370 L561,368 L539,366 L529,362 L527,363 L526,361 L515,357 Z M159,358 L157,361 L159,362 L159,358 Z M511,358 L514,368 L515,369 L510,362 C510.666667,359.333333 510,358.333333 508,359 L505,364 L525,404 L527,405 L526,407 L527,410 L528,413 C532.666667,420.333333 535.333333,429 536,439 L551,437 L553,437 L555,436 L552,430 L553,427 L557,436 L578,427 L571,418 L569,417 C565,411 559.333333,407.333333 552,406 L548,411 L547,411 L550,405 C546.666667,404.333333 544.666667,405 544,407 L541,407 L544,406 L545,403 L538,407 L540,408 L537,409 L534,408 L534,410 L532,409 L532,411 L531,411 L530,409 L531,408 L533,408 L542,403 L538,401 L533,395 L540,401 L544,401 L549,396 L538,384 L531,377 L528,379 L529,377 L525,371 L522,369 L520,365 L518,364 L511,358 Z M167,359 L167,360 L167,359 Z M125,362 L120,364 L124,374 L131,372 L128,364 L125,362 Z M157,362 L157,363 L157,362 Z M161,364 L157,366 L161,367 L161,364 Z M502,364 L502,365 L502,364 Z M501,365 L499,368 L501,367 L501,365 Z M504,365 L493,383 C495,397.666667 501,408.666667 511,416 L518,414 L521,413 L525,411 L504,365 Z M267,366 L261,378 L275,387 L280,371 L279,366 C274.333333,364.666667 271.666667,365.333333 271,368 L267,366 Z M117,367 L105,371 L107,381 L123,376 L122,372 L121,372 L121,371 L120,369 C120.666667,367 119.666667,366.333333 117,367 Z M154,367 L151,370 L129,378 L134,390 L111,398 L109,387 L119,383 L119,382 L99,388 L97,387 L35,407 L42,422 L41,425 L43,425 L43,429 L60,461 L71,498 L78,511 L104,488 L106,485 L107,483 L90,471 L91,469 L107,482 L132,461 L134,459 L139,452 L170,426 L189,422 L187,414 L181,409 L183,403 L181,394 L180,391 L174,383 L167,378 L160,368 L154,367 Z M162,367 L162,368 L162,367 Z M309,367 L309,368 L309,367 Z M433,369 L432,386 L434,385 L435,386 L434,386 L431,392 L433,393 L431,393 L430,401 C430,403 432,403.333333 436,402 L436,404 L436,406 L437,412 L453,409 L446,390 L445,390 L440,390 L445,389 L440,378 L439,378 L439,377 L438,371 L433,369 Z M497,369 L492,376 L493,381 L499,371 L497,369 Z M565,369 L565,372 C573.666667,380 583.666667,386.666667 595,392 L597,397 L619,417 L623,418 L636,386 L628,385 L628,384 L629,381 L597,375 L595,376 L592,374 L565,369 Z M494,370 L494,371 L494,370 Z M493,371 L493,372 L493,371 Z M562,372 C560.666667,381.333333 557.333333,389.333333 552,396 L570,415 L571,417 L584,425 L583,424 L584,422 L582,404 L571,379 L565,372 L562,372 Z M308,373 L305,376 L307,377 L307,378 L305,377 L300,380 C302,383.333333 304,383 306,379 L303,383 L307,389 L311,391 L317,401 L325,406 L327,403 L326,401 L325,399 L328,401 L331,386 L314,376 C312.666667,372.666667 311.333333,372 310,374 L308,373 Z M465,373 L464,378 L465,378 L465,373 Z M635,376 L635,377 L635,376 Z M124,377 L124,378 L125,378 L124,377 Z M279,377 L273,398 L274,399 L298,380 L297,378 L279,377 Z M633,377 L632,379 L635,380 L633,377 Z M121,378 L121,379 L122,379 L121,378 Z M260,378 L246,395 L231,407 L230,408 L225,414 L226,417 L224,415 C218,421 211,425.333333 203,428 C206.333333,437.333333 212,445 220,451 L230,434 L232,432 L233,430 L269,403 L274,392 L274,388 L272,386 L260,378 Z M466,378 L465,381 L466,381 L466,378 Z M17,379 L16,381 L17,381 L17,379 Z M19,379 L19,380 L19,379 Z M118,379 L106,383 L106,384 L120,380 L118,379 Z M128,379 L130,389 L132,390 L128,379 Z M490,379 L485,385 L495,413 L500,416 L505,422 L510,419 L499,406 L490,379 Z M125,380 L110,388 L114,397 L129,391 L126,382 L125,380 Z M639,380 L639,381 L640,381 L639,380 Z M120,381 L120,382 L120,381 Z M299,381 L293,385 L289,390 L292,391 C290.666667,393 289.333333,392.333333 288,389 L287,392 L286,391 L283,393 L280,398 C281.333333,400 282.666667,399.666667 284,397 L282,400 L287,409 L290,408 L288,411 C288.666667,419 291.666667,425.333333 297,430 L301,425 L300,423 L302,423 L303,420 L312,415 L313,413 L322,409 L323,408 L319,403 L314,407 L317,403 L315,400 L313,401 L314,399 L307,391 L305,389 L302,384 L299,381 Z M467,381 L466,383 L467,383 L467,381 Z M575,381 L583,402 L585,425 L603,435 L605,439 L621,447 C623,446.333333 623.666667,447 623,449 L635,456 L638,454 L647,456 L651,456 L650,458 L654,459 L671,448 L673,443 L670,438 L671,436 L651,406 L648,402 L634,397 L624,419 L620,419 L600,401 L595,395 L575,381 Z M642,381 L642,382 L642,381 Z M632,382 L632,384 L637,384 L632,382 Z M468,383 L467,386 L468,386 L468,383 Z M641,383 L642,389 L646,390 L648,387 L641,383 Z M102,384 L102,385 L104,385 L102,384 Z M335,384 L335,387 L342,390 L343,390 L335,384 Z M469,386 L468,389 L469,389 L469,386 Z M556,387 L556,388 L556,387 Z M637,387 L634,394 C633.333333,396.666667 634.333333,397.333333 637,396 L639,391 C639.666667,387.666667 639,386.333333 637,387 Z M179,388 L179,389 L179,388 Z M484,388 L482,391 L472,399 C476,403.666667 482.333333,406.666667 491,408 L492,409 L485,391 L484,388 Z M180,389 L180,390 L180,389 Z M335,389 L329,405 L334,407 L340,394 L335,389 Z M470,389 L469,392 L470,392 L470,389 Z M555,389 L555,390 L555,389 Z M554,390 L553,392 L554,392 L554,390 Z M641,391 L638,397 L647,401 L648,401 L645,399 L641,391 Z M471,392 L470,395 L472,396 L471,392 Z M553,392 L553,393 L553,392 Z M552,393 L551,395 L552,395 L552,393 Z M342,394 L321,441 L296,480 L282,492 L287,500 L289,501 L302,517 L306,516 L348,462 L350,460 L384,421 L384,417 L342,394 Z M278,397 L264,408 L272,417 L285,410 L279,399 L278,397 Z M549,397 L544,402 L547,403 L550,398 L549,397 Z M551,398 L548,403 L556,406 L557,405 L551,398 Z M471,400 L467,404 L470,411 L500,424 L503,423 L502,421 L492,410 L471,400 Z M184,403 L183,406 L184,406 L184,403 Z M429,403 L428,406 L430,407 L427,407 L426,413 L426,414 L431,413 L435,413 L435,405 L429,403 Z M466,405 L457,412 L458,419 L456,419 L455,411 L425,417 L423,430 L431,456 L431,478 L418,509 L418,510 L439,509 L442,511 L422,511 L422,515 L421,512 L417,513 C415,512.333333 414.333333,513.666667 415,517 L415,519 L413,530 L417,532 L416,537 L419,539 L428,541 L432,532 L446,524 C451.333333,523.333333 455.333333,524 458,526 L460,525 L468,529 C476,529.666667 482,528.333333 486,525 L491,518 L489,508 L488,506 L488,505 L487,499 L486,499 L487,497 L486,495 L487,484 L486,480 L488,480 L490,475 L507,462 C511,458.666667 513.333333,453.666667 514,447 L507,427 L505,425 L501,430 L503,433 L501,433 L500,436 L501,438 L500,437 L491,457 L481,455 L475,456 L458,449 C456,448.333333 455.333333,449.666667 456,453 L455,453 L457,438 L458,438 L457,448 L470,453 L471,455 L477,454 L476,453 L478,448 L479,448 L477,453 L490,456 L500,434 L497,428 L498,425 L486,419 L484,419 L483,417 L471,412 L467,407 L466,405 Z M188,406 L188,410 L195,420 L197,419 L192,409 L188,406 Z M328,406 L313,417 L311,420 L310,419 L307,421 L303,426 L322,435 L327,425 L326,422 L328,422 L332,412 L331,409 L331,407 L329,408 L329,407 L328,406 Z M558,406 L558,407 L558,406 Z M184,407 L185,409 L184,407 Z M537,407 L537,408 L537,407 Z M34,408 L34,412 L36,413 L34,408 Z M333,408 L333,409 L333,408 Z M186,409 L186,410 L186,409 Z M263,409 L236,430 L241,432 L241,433 L238,435 L241,436 L244,440 L256,433 L255,432 L257,432 L267,423 L268,422 L271,420 L272,418 L263,409 Z M740,409 L740,410 L742,410 L740,409 Z M750,409 L750,410 L752,410 L750,409 Z M287,410 L274,419 L282,430 L289,436 L291,436 L295,431 C290.333333,425.666667 287.666667,418.666667 287,410 Z M733,410 L722,412 L721,418 L737,421 L738,412 L733,410 Z M754,410 L754,411 L755,411 L754,410 Z M758,411 L758,412 L759,412 L758,411 Z M37,413 L36,415 L37,415 L37,413 Z M525,413 L513,419 C517.666667,425.666667 521,434.333333 523,445 C524.333333,454.333333 523.333333,461.666667 520,467 C520.666667,471.666667 523.333333,475 528,477 L535,476 L534,456 L535,453 C535,437.666667 532.333333,425 527,415 L525,413 Z M38,415 L37,417 L38,417 L38,415 Z M390,415 L390,416 L391,416 L390,415 Z M393,415 L393,416 L397,416 L393,415 Z M400,415 L400,416 L403,416 L400,415 Z M39,417 L38,419 L39,419 L39,417 Z M386,417 C386,421.666667 384.333333,425 381,427 L392,427 L391,424 C393,417.333333 391.333333,415 386,417 Z M406,417 L406,418 L406,417 Z M392,418 L397,439 L397,442 L393,428 L385,428 L385,431 L384,431 C384.666667,427.666667 383.333333,426.666667 380,428 L368,442 L367,443 L359,453 L358,456 L357,455 L353,460 L377,468 L378,468 L378,471 L355,462 L353,463 L352,461 L305,522 L317,533 L324,526 L325,525 L332,519 L333,518 L334,518 C334.666667,520 334,520.666667 332,520 L328,525 L319,531 L320,534 L319,533 L317,534 L322,536 L322,534 L324,538 L326,537 L337,543 L339,543 L339,545 L377,564 C383,564 387.666667,562.666667 391,560 L393,558 L400,548 L400,544 L387,547 L387,549 L380,538 C381.333333,532 381,528.333333 379,527 L370,528 L367,513 L356,516 C352,514.666667 350.333333,515.333333 351,518 L350,517 L343,520 L336,519 L353,515 L355,515 L368,511 L370,504 L370,508 L387,509 L370,510 L383,510 L382,512 L369,511 L368,515 L371,527 L377,526 L383,528 L399,529 L382,529 L381,533 L381,537 L387,546 L393,544 C395.666667,544.666667 396.666667,544.333333 396,543 L398,543 L400,542 L401,536 L402,536 L401,540 L407,539 L411,535 C410.333333,527 411,521 413,517 C413.666667,513.666667 413.333333,512.333333 412,513 L405,526 L404,522 L393,522 L405,521 L410,514 L405,513 L411,512 L410,510 L389,510 L389,495 L387,496 L383,495 L381,495 L378,496 L372,495 L371,503 L370,503 L372,494 L371,490 L373,489 L374,481 L375,481 L373,494 L389,494 L389,490 L390,490 L391,494 L408,494 L409,490 L409,493 L414,494 L414,467 L415,463 L403,466 L399,466 L401,465 L398,450 L399,447 L402,464 L412,462 L414,461 L414,457 L415,455 L415,453 L414,452 L414,451 L415,448 L413,448 L415,446 L416,432 L417,429 L416,427 L418,423 L417,418 L399,421 L395,420 L398,419 L392,418 Z M402,418 L402,419 L405,419 L402,418 Z M40,419 L39,421 L40,421 L40,419 Z M422,419 L419,420 C416.333333,432 415.333333,445.666667 416,461 L430,459 L427,447 L426,447 L426,446 L422,432 L423,425 C423.666667,420.333333 423.333333,418.333333 422,419 Z M512,419 L506,424 C510.666667,429.333333 513.666667,436.333333 515,445 C515,451.666667 513.333333,457 510,461 L496,471 C490.666667,474.333333 487.666667,479.666667 487,487 C487,496.333333 488.666667,504 492,510 C493.333333,516.666667 492.333333,521.333333 489,524 C485,528 479.333333,530.333333 472,531 L451,525 L437,529 C432.333333,531.666667 430,535.666667 430,541 L434,542 L439,541 L456,544 L462,547 L486,550 L489,541 L487,538 L490,534 L488,537 L490,541 L487,551 L494,552 L497,552 L503,547 L505,545 L510,540 L512,523 L512,520 L496,531 L494,531 L518,516 C519.333333,504.666667 522.333333,495 527,487 C527,478.333333 524.333333,472.666667 519,470 L522,459 C522.666667,441.666667 519.333333,428.333333 512,419 Z M272,420 L270,423 L254,436 L264,450 L267,448 L268,446 L284,435 L275,422 L272,420 Z M41,422 L40,424 L41,424 L41,422 Z M39,423 L39,424 L39,423 Z M193,423 L190,424 L188,424 L180,425 L180,427 L179,425 L169,429 L162,437 C160.666667,455.666667 161.666667,472.666667 165,488 L164,496 L163,493 L142,508 L140,510 L165,534 L177,523 L173,518 L178,521 L178,520 L174,515 L173,516 L168,510 L169,508 L170,510 L171,508 L179,521 C185.666667,529 195.666667,534 209,536 L204,537 L201,537 L204,536 L204,535 L200,536 L197,536 L200,535 L197,533 L194,534 L194,532 L192,533 L183,527 L170,539 L177,548 L194,563 L212,540 L210,539 L213,538 L210,537 L216,536 L246,497 L248,494 L245,491 C247,486.333333 250.333333,484 255,484 L257,480 L249,475 L247,473 L219,457 L216,455 L205,443 L202,445 L197,438 L196,436 L195,433 L194,436 L191,438 L190,438 L194,431 L197,430 L194,425 L193,423 Z M40,424 L40,425 L40,424 Z M500,426 L500,427 L500,426 Z M580,426 L576,430 L556,438 L568,462 L576,458 L577,458 L570,462 L568,464 C565.333333,464.666667 564.333333,464 565,462 L538,453 L536,457 L536,461 L536,475 L538,477 L563,464 L564,465 L537,478 L540,492 C538.666667,496 539.333333,498 542,498 L541,500 L543,511 C542.333333,513.666667 543,514.666667 545,514 L544,517 L545,521 L545,518 L546,518 C544.666667,520.666667 545.666667,521.666667 549,521 L555,515 L554,514 L557,513 L578,500 L580,496 L579,493 L580,491 L581,493 L640,463 L608,443 L605,443 L603,444 L607,442 L600,439 L585,430 L584,428 L580,426 Z M303,427 L289,445 L287,446 L281,456 L301,470 L321,437 L303,427 Z M501,427 L501,428 L501,427 Z M202,429 L200,431 C203.333333,440.333333 209,447.666667 217,453 L219,453 L215,449 L202,429 Z M198,431 L199,438 L200,438 L198,431 Z M233,432 L228,438 L229,439 L233,434 L233,432 Z M235,432 L232,438 L227,442 L221,452 L230,456 L232,453 L244,443 L235,432 Z M158,435 L158,437 L160,436 L158,435 Z M285,435 L273,445 L271,448 L278,453 L282,448 L281,446 L283,446 L289,438 L285,435 Z M673,436 L672,439 L673,439 L673,436 Z M158,437 L110,485 L111,486 L110,485 L81,513 L79,516 L83,520 L82,521 L87,523 L94,532 L101,528 L105,524 L126,501 L113,486 L116,488 L118,492 L120,491 C122.666667,492.333333 123,493.666667 121,495 L128,500 L127,498 L138,507 L162,490 C159.333333,478.666667 158.333333,465.666667 159,451 L159,449 L158,437 Z M252,437 L246,440 L257,457 L257,455 L259,455 L264,451 L259,447 L255,440 L252,437 Z M555,437 L536,440 L537,451 L561,460 L565,460 L555,437 Z M675,437 L675,438 L675,437 Z M201,438 L201,442 L203,443 L201,438 Z M228,439 L228,440 L228,439 Z M676,439 L672,451 L664,454 L662,457 L676,450 L677,448 C678.333333,443.333333 678,440.333333 676,439 Z M245,443 L239,450 L238,449 L231,457 L240,461 L245,458 L246,457 L240,451 L242,450 L247,456 L251,453 L250,450 L247,447 L245,443 Z M610,443 L610,444 L610,443 Z M612,444 L612,445 L612,444 Z M161,446 L160,463 L161,463 L161,446 Z M617,447 L617,448 L617,447 Z M268,449 L266,452 L256,459 L249,467 L261,473 L264,471 L266,469 L276,456 L268,449 Z M253,453 L242,462 L247,465 L249,464 L255,459 L253,453 Z M222,454 L220,456 L234,462 L236,462 L236,464 L260,476 L261,474 L222,454 Z M639,455 L639,456 L639,455 Z M638,456 L637,458 L638,458 L638,456 Z M641,456 L639,458 L645,464 L649,462 L650,461 L641,456 Z M278,458 L266,475 L281,486 L284,487 L283,489 L285,489 L299,473 L281,458 L278,458 Z M652,460 L652,461 L652,460 Z M424,461 L416,462 L417,492 L428,464 C428.666667,460.666667 427.333333,459.666667 424,461 Z M430,462 L416,496 L417,508 L430,476 L430,462 Z M658,462 L652,465 L650,468 L670,486 L704,506 L718,512 L719,515 L729,520 L728,504 L715,490 L680,470 L658,462 Z M641,464 L639,465 L640,467 L642,466 L641,464 Z M637,466 L627,471 L628,474 L638,469 L637,466 Z M626,472 L625,474 L626,474 L626,472 Z M119,473 L119,474 L119,473 Z M622,473 L587,491 L590,492 L624,475 L622,473 Z M118,474 L118,475 L118,474 Z M117,475 L117,476 L117,475 Z M116,476 L110,483 L116,478 L116,476 Z M162,476 L161,480 L162,480 L162,476 Z M264,476 L265,479 L266,477 L264,476 Z M527,478 L527,482 L533,480 C533,477.333333 531,476.666667 527,478 Z M535,478 L535,479 L535,478 Z M268,479 L270,482 L271,482 L268,479 Z M261,480 L259,482 L260,483 L262,482 L261,480 Z M535,480 L529,485 C529.666667,487 529,487.666667 527,487 C523,494.333333 520.666667,503 520,513 L538,500 L535,480 Z M272,482 L279,489 L280,492 L282,491 L272,482 Z M163,483 L162,486 L163,486 L163,483 Z M262,483 L260,484 L251,496 L250,495 L238,510 L237,512 L196,566 L220,592 L224,595 L272,547 C267.333333,544.333333 265,540 265,534 L261,534 L265,533 L261,532 L267,530 L271,531 L266,532 L271,533 L267,533 C267.666667,538.333333 270.333333,542 275,544 L286,534 L283,529 L282,531 L272,530 L288,526 L288,528 L283,529 L286,529 L286,531 L287,529 L292,530 L293,527 L289,527 L294,526 C296.666667,525.333333 297.666667,523.333333 297,520 L296,520 L296,519 L293,516 L293,515 L290,509 L288,507 L284,500 L280,496 L277,498 L279,494 L262,483 Z M529,483 L529,484 L529,483 Z M252,486 L247,491 L250,492 L253,487 L252,486 Z M282,488 L282,489 L282,488 Z M586,491 L581,495 L582,497 L587,495 L588,493 L586,491 Z M120,492 L120,493 L120,492 Z M164,492 L164,493 L164,492 Z M121,493 L121,494 L121,493 Z M390,495 L390,509 L412,510 L414,509 L412,508 L409,495 L396,495 L396,505 L395,505 L395,495 L390,495 Z M410,495 L413,507 L414,507 L414,495 L410,495 Z M579,497 L579,499 L581,498 L579,497 Z M739,499 L730,504 L731,518 C733,522 737.666667,523 745,521 L740,502 L739,499 Z M742,499 L741,501 L742,501 L742,499 Z M128,500 L130,504 L129,503 L97,533 L98,536 L134,511 L132,508 L135,509 L137,508 L128,500 Z M539,500 L539,501 L539,500 Z M583,500 L583,501 L583,500 Z M582,501 L567,508 L561,514 L559,516 L554,521 L556,522 L567,522 L587,511 L584,502 L582,501 Z M538,502 L537,503 L535,506 L534,505 L521,515 L519,518 L518,517 L515,518 L512,527 L513,537 L517,533 L518,520 L519,531 L535,517 L536,519 L538,518 L539,516 L537,517 L536,515 L541,512 L539,505 L538,502 Z M743,503 L742,505 L743,505 L743,503 Z M75,506 L74,508 L75,508 L75,506 Z M744,506 L743,508 L744,508 L744,506 Z M76,509 L75,511 L76,511 L76,509 Z M140,510 L138,513 L155,529 L156,528 L140,510 Z M171,510 L170,512 L172,513 L171,510 Z M713,510 L713,511 L713,510 Z M745,510 L744,512 L745,512 L745,510 Z M714,511 L714,512 L714,511 Z M78,512 L78,514 L80,513 L78,512 Z M137,512 L102,539 L105,542 L108,546 L124,560 L123,558 L125,558 L126,556 L129,555 L133,551 L133,549 C135,550.333333 137,549 139,545 L141,543 L153,529 L148,523 L147,524 L147,523 L137,512 Z M560,512 L560,513 L560,512 Z M711,512 L711,513 L711,512 Z M716,512 L716,513 L716,512 Z M77,513 L77,514 L77,513 Z M173,513 L172,515 L173,515 L173,513 Z M520,513 L520,514 L520,513 Z M556,513 L556,514 L556,513 Z M559,513 L559,514 L559,513 Z M718,513 L718,514 L718,513 Z M746,513 L745,516 L746,516 L746,513 Z M76,514 L75,516 L76,516 L76,514 Z M541,514 L541,515 L541,514 Z M558,514 L558,515 L558,514 Z M714,514 L714,515 L715,515 L714,514 Z M557,515 L557,516 L557,515 Z M716,515 L716,516 L716,515 Z M79,516 L79,517 L79,516 Z M541,516 L520,533 L525,541 L527,540 L528,538 L542,527 L541,520 L541,518 L541,516 Z M556,516 L556,517 L556,516 Z M80,517 L80,518 L80,517 Z M555,517 L555,518 L555,517 Z M719,517 L719,518 L719,517 Z M747,517 L747,518 L747,517 Z M77,518 L55,539 L54,540 L40,554 L47,561 L40,554 L31,563 L31,566 L54,581 L59,576 L56,573 L59,574 L78,558 L79,556 L83,553 L85,551 L97,538 L92,535 L77,518 Z M81,518 L81,519 L81,518 Z M542,518 L542,519 L542,518 Z M554,518 L554,519 L554,518 Z M82,519 L82,520 L82,519 Z M534,519 L530,524 L535,520 L534,519 Z M732,519 L733,521 L732,519 Z M748,520 L748,521 L748,520 Z M553,521 L553,522 L554,522 L553,521 Z M180,522 L180,523 L180,522 Z M552,522 L552,523 L552,522 Z M181,523 L181,524 L181,523 Z M551,523 L551,524 L551,523 Z M177,524 L166,535 L169,538 L180,526 L177,524 Z M182,524 L182,525 L182,524 Z M301,524 L301,525 L301,524 Z M529,524 L529,525 L529,524 Z M731,524 L732,527 L733,525 L731,524 Z M184,525 L183,527 L186,528 L184,525 Z M528,525 L528,526 L528,525 Z M526,526 L518,533 L519,534 L527,527 L526,526 Z M300,527 L297,530 L292,554 L293,558 L293,557 L296,555 L314,534 L300,527 Z M546,527 L547,535 L548,535 C549.333333,529 548.666667,526.333333 546,527 Z M187,528 L187,529 L187,528 Z M543,528 L543,529 L543,528 Z M156,529 L162,536 L164,535 C162.666667,530.333333 160,528.333333 156,529 Z M188,529 L191,532 L191,530 L188,529 Z M278,529 L278,530 L280,530 L278,529 Z M288,530 L290,532 L288,530 Z M296,530 L296,531 L296,530 Z M311,530 L311,531 L311,530 Z M541,530 L541,531 L541,530 Z M109,531 L109,532 L109,531 Z M155,531 L146,541 L157,550 L163,557 L172,549 L166,542 L159,549 L165,542 L163,538 L161,537 L155,531 Z M293,531 L293,533 L295,534 C295.666667,531.333333 295,530.333333 293,531 Z M540,531 L540,532 L540,531 Z M545,531 L543,533 L544,535 L545,535 L545,531 Z M539,532 L539,533 L539,532 Z M106,533 L106,534 L106,533 Z M292,533 L291,536 L293,537 C294.333333,533.666667 294,532.333333 292,533 Z M414,533 L414,538 L414,536 L414,533 Z M538,533 L538,534 L538,533 Z M105,534 L105,535 L105,534 Z M537,534 L537,535 L537,534 Z M104,535 L104,536 L104,535 Z M516,535 L514,538 L517,536 L516,535 Z M519,535 L513,541 L519,548 L525,543 L519,535 Z M536,535 L536,536 L536,535 Z M163,536 L166,540 L168,539 L163,536 Z M323,536 L323,537 L323,536 Z M535,536 L535,537 L535,536 Z M290,537 L278,548 L289,559 L292,539 L290,537 Z M316,537 L318,539 L316,537 Z M534,537 L534,538 L534,537 Z M326,538 L326,539 L326,538 Z M533,538 L533,539 L533,538 Z M98,539 L96,542 L99,540 L98,539 Z M532,539 L532,540 L532,539 Z M167,540 C166.333333,544 168.333333,546.666667 173,548 L174,545 L167,540 Z M531,540 L531,541 L531,540 Z M100,541 L100,542 L101,542 L100,541 Z M145,541 L143,544 L140,546 L136,551 L154,567 L156,563 L162,559 L151,546 L149,545 L145,541 Z M404,541 L403,543 L405,542 L404,541 Z M510,541 L506,546 L511,542 L510,541 Z M530,541 L530,542 L530,541 Z M98,542 L64,576 L76,590 L79,591 L85,598 L97,585 L99,571 L98,567 L109,553 L98,542 Z M102,542 L102,543 L102,542 Z M415,542 L416,549 L414,554 L415,556 L414,561 L418,560 L425,562 C427,562 427.333333,559.666667 426,555 L426,553 L428,545 L415,542 Z M512,542 L502,552 L504,552 L507,553 L519,550 L512,542 Z M529,542 L529,543 L529,542 Z M528,543 L528,544 L528,543 Z M93,544 L86,552 L94,545 L93,544 Z M104,544 L104,545 L104,544 Z M527,544 L527,545 L527,544 Z M105,545 L105,546 L105,545 Z M526,545 L526,546 L526,545 Z M106,546 L106,547 L106,546 Z M505,546 L505,547 L505,546 Z M525,546 L525,547 L525,546 Z M504,547 L504,548 L504,547 Z M524,547 L524,548 L524,547 Z M175,548 L175,551 L192,567 L193,565 L175,548 Z M503,548 L503,549 L503,548 Z M523,548 L523,549 L523,548 Z M109,549 L109,550 L109,549 Z M502,549 L502,550 L502,549 Z M522,549 L522,550 L522,549 Z M110,550 L110,551 L110,550 Z M174,550 L154,570 L155,571 L154,570 L145,579 L147,581 C145.666667,578.333333 144.333333,578.333333 143,581 L164,602 L167,600 L191,569 L174,550 Z M501,550 L501,551 L501,550 Z M520,550 L520,551 L521,551 L520,550 Z M111,551 L111,552 L111,551 Z M135,551 L129,557 L128,558 L124,562 L142,579 L152,569 L135,551 Z M519,551 L519,552 L519,551 Z M522,551 L522,552 L522,551 Z M85,552 L85,553 L85,552 Z M112,552 L112,553 L112,552 Z M521,552 L521,553 L521,552 Z M84,553 L84,554 L84,553 Z M113,553 L113,554 L113,553 Z M83,554 L83,555 L83,554 Z M82,555 L82,556 L82,555 Z M115,555 L115,556 L115,555 Z M399,555 L399,556 L399,555 Z M546,555 L545,559 L546,559 L546,555 Z M81,556 L81,557 L81,556 Z M116,556 L116,557 L116,556 Z M80,557 L80,558 L80,557 Z M117,557 L117,558 L117,557 Z M79,558 L79,559 L79,558 Z M118,558 L118,559 L118,558 Z M78,559 L78,560 L78,559 Z M119,559 L119,560 L119,559 Z M77,560 L77,561 L77,560 Z M120,560 L120,561 L120,560 Z M76,561 L76,562 L76,561 Z M121,561 L121,562 L121,561 Z M75,562 L75,563 L75,562 Z M74,563 L74,564 L74,563 Z M73,564 L73,565 L73,564 Z M72,565 L72,566 L72,565 Z M71,566 L71,567 L71,566 Z M70,567 L70,568 L70,567 Z M195,567 L193,569 L222,596 L215,586 L213,585 L195,567 Z M69,568 L69,569 L69,568 Z M67,570 L67,571 L67,570 Z M66,571 L66,572 L66,571 Z M65,572 L65,573 L65,572 Z M64,573 L64,574 L64,573 Z M60,574 L60,575 L60,574 Z M62,575 L62,576 L62,575 Z M61,576 L61,577 L61,576 Z M66,580 L66,581 L66,580 Z M67,581 L67,582 L67,581 Z M68,582 L68,583 L68,582 Z M69,583 L69,584 L69,583 Z M71,585 L71,586 L71,585 Z M72,586 L72,587 L72,586 Z M73,587 L73,588 L73,587 Z M49,588 L49,589 L49,588 Z M74,588 L74,589 L74,588 Z M48,589 L48,590 L48,589 Z M75,589 L75,590 L75,589 Z M47,590 L47,591 L47,590 Z M741,591 L741,592 L741,591 Z M377,599 L377,600 L377,599 Z"></path>
      <path class="path" d="M 761.5 149 L 760.5 151 L 730.5 161 L 731.5 159 L 733.5 159"></path>
      <path class="path" d="M 422.5 340 L 424 350.5 L 421.5 375 L 420 360.5 L 422 360.5"></path>
      <path class="path" d="M 420.5 377 L 421 391 L 425 391.5 L 421 392 L 420.5 410"></path>
      <path class="path" d="M 629 489 L 635 491.5 L 638 497.5 L 636 496.5 L 632.5 490 L 604.5 504 L 605.5 502 L 629 491"></path>
      <path class="path" d="M31,503 L34,504.5 L29,520.5 L23.5,527 L14.5,530 L12.5,530 L10,531.5 L4.5,542 L4,540.5 C7.13333333,538.633333 8.46666667,534.966667 8,529.5 L4,527 L4.5,525 C7.03333333,527.8 11.3666667,528.8 17.5,528 L26,522.5 L32,507.5 L31,503 Z"></path>
      <path id="motionPath" d="M 163 605 L 259 483 L 264 473 L 301 427 L 305 420 L 327 405 L 333 386 L 310 371 L 300 333 L 300 314 L 305 266 L 314 242 L 325 228 L 336 212 L 347 204 L 357 197 L 369 193 L 380 190 L 396 189 L 417 189 L 436 191 L 452 195 L 460 197 L 477 206 L 489 191 L 503 183 L 518 177 L 553 151 L 573 127 L 583 111 L 619 86 L 657 77 L 674 77 L 762 50 L 800 23"></path>
      <circle cx="0" cy="0" r="10">
        <animateMotion dur="10s" repeatCount="indefinite" fill="freeze">
          <mpath xlink:href="#motionPath"/>
        </animateMotion>
      </circle>
      <path id="motionPath2" d="M 5 186 L 61 202 L 105 214 L 159 225 L 241 244 L 266 252 L 290 256 L 305 266 L 299 332 L 310 372 L 334 386 L 384 415 L 426 417 L 459 409 L 485 385 L 508 354 L 531 376 L 578 424 L 638 460 L 650 468 L 670 489 L 733 522 L 751 523 L 763 526 L 775 529"></path>
      <circle cx="0" cy="0" r="10">
        <animateMotion dur="10s" repeatCount="indefinite" fill="freeze">
          <mpath xlink:href="#motionPath2"/>
        </animateMotion>
      </circle>
  </g>
</svg>